<svg xmlns="http://www.w3.org/2000/svg" xmlns:xlink="http://www.w3.org/1999/xlink" viewBox="0 0 3200 2000"><defs><style>.cls-1{isolation:isolate;}.cls-10,.cls-2,.cls-4,.cls-69,.cls-70,.cls-8{fill:#fff;}.cls-10,.cls-11,.cls-12,.cls-13,.cls-14,.cls-15,.cls-16,.cls-17,.cls-18,.cls-19,.cls-20,.cls-21,.cls-22,.cls-23,.cls-24,.cls-25,.cls-26,.cls-27,.cls-28,.cls-29,.cls-3,.cls-30,.cls-31,.cls-32,.cls-33,.cls-34,.cls-35,.cls-36,.cls-37,.cls-38,.cls-39,.cls-4,.cls-40,.cls-41,.cls-42,.cls-43,.cls-44,.cls-45,.cls-46,.cls-47,.cls-48,.cls-49,.cls-5,.cls-50,.cls-51,.cls-52,.cls-53,.cls-54,.cls-55,.cls-56,.cls-57,.cls-58,.cls-59,.cls-6,.cls-60,.cls-61,.cls-62,.cls-63,.cls-64,.cls-65,.cls-66,.cls-67,.cls-68,.cls-69,.cls-70,.cls-71,.cls-72,.cls-73,.cls-74,.cls-75,.cls-76{fill-rule:evenodd;}.cls-3{fill:url(#linear-gradient);}.cls-4,.cls-5,.cls-6,.cls-7{opacity:0.1;}.cls-4,.cls-5,.cls-6,.cls-7,.cls-70,.cls-8{mix-blend-mode:screen;}.cls-5,.cls-7{fill:#e4e5da;}.cls-6{fill:#cdcebe;}.cls-70,.cls-8{opacity:0.2;}.cls-63,.cls-9{mix-blend-mode:multiply;}.cls-10{opacity:0;}.cls-11{fill:#fefefe;opacity:0.02;}.cls-12{fill:#fdfdfd;opacity:0.04;}.cls-13{fill:#fcfcfc;opacity:0.06;}.cls-14{fill:#fbfcfc;opacity:0.08;}.cls-15{fill:#fafbfb;opacity:0.1;}.cls-16{fill:#fafafa;opacity:0.12;}.cls-17{fill:#f9f9f9;opacity:0.14;}.cls-18{fill:#f8f8f8;opacity:0.16;}.cls-19{fill:#f7f7f7;opacity:0.18;}.cls-20{fill:#f6f6f7;opacity:0.2;}.cls-21{fill:#f5f6f6;opacity:0.22;}.cls-22{fill:#f4f5f5;opacity:0.24;}.cls-23{fill:#f3f4f4;opacity:0.25;}.cls-24{fill:#f2f3f3;opacity:0.27;}.cls-25{fill:#f1f2f2;opacity:0.29;}.cls-26{fill:#f1f1f2;opacity:0.31;}.cls-27{fill:#f0f0f1;opacity:0.33;}.cls-28{fill:#efeff0;opacity:0.35;}.cls-29{fill:#eeefef;opacity:0.37;}.cls-30{fill:#edeeee;opacity:0.39;}.cls-31{fill:#eceded;opacity:0.41;}.cls-32{fill:#ebecec;opacity:0.43;}.cls-33{fill:#eaebec;opacity:0.45;}.cls-34{fill:#e9eaeb;opacity:0.47;}.cls-35{fill:#e8e9ea;opacity:0.49;}.cls-36{fill:#e8e9e9;opacity:0.51;}.cls-37{fill:#e7e8e8;opacity:0.53;}.cls-38{fill:#e6e7e7;opacity:0.55;}.cls-39{fill:#e5e6e7;opacity:0.57;}.cls-40{fill:#e4e5e6;opacity:0.59;}.cls-41{fill:#e3e4e5;opacity:0.61;}.cls-42{fill:#e2e3e4;opacity:0.63;}.cls-43{fill:#e1e3e3;opacity:0.65;}.cls-44{fill:#e0e2e2;opacity:0.67;}.cls-45{fill:#dfe1e1;opacity:0.69;}.cls-46{fill:#dfe0e1;opacity:0.71;}.cls-47{fill:#dedfe0;opacity:0.73;}.cls-48{fill:#dddedf;opacity:0.75;}.cls-49{fill:#dcddde;opacity:0.76;}.cls-50{fill:#dbdcdd;opacity:0.78;}.cls-51{fill:#dadcdc;opacity:0.8;}.cls-52{fill:#d9dbdc;opacity:0.82;}.cls-53{fill:#d8dadb;opacity:0.84;}.cls-54{fill:#d7d9da;opacity:0.86;}.cls-55{fill:#d6d8d9;opacity:0.88;}.cls-56{fill:#d6d7d8;opacity:0.9;}.cls-57{fill:#d5d6d7;opacity:0.92;}.cls-58{fill:#d4d6d7;opacity:0.94;}.cls-59{fill:#d3d5d6;opacity:0.96;}.cls-60{fill:#d2d4d5;opacity:0.98;}.cls-61{fill:#d1d3d4;}.cls-62,.cls-77{fill:#231f20;}.cls-63{fill:#875a3f;opacity:0.07;}.cls-64,.cls-78{fill:#f58120;}.cls-65{fill:#939598;}.cls-66{fill:url(#linear-gradient-2);}.cls-67{fill:#58595b;}.cls-68{fill:url(#linear-gradient-3);}.cls-71{fill:url(#linear-gradient-4);}.cls-72{fill:#ffc8b7;}.cls-73{fill:#8b5e3c;}.cls-74{fill:url(#linear-gradient-5);}.cls-75{fill:#1f2b52;}.cls-76{fill:#093b5e;}.cls-79{fill:none;stroke:#231f20;stroke-miterlimit:10;stroke-width:5px;}</style><linearGradient id="linear-gradient" x1="1681.98" y1="2066.96" x2="1681.98" y2="-323.87" gradientUnits="userSpaceOnUse"><stop offset="0" stop-color="#f2f2f2"/><stop offset="1" stop-color="#f58120"/></linearGradient><linearGradient id="linear-gradient-2" x1="13794.74" y1="1217.19" x2="13824.58" y2="1658.76" gradientTransform="translate(-10918.82)" gradientUnits="userSpaceOnUse"><stop offset="0.18" stop-color="#414042"/><stop offset="0.22" stop-color="#444345"/><stop offset="0.51" stop-color="#5b5b5d"/><stop offset="0.78" stop-color="#68696c"/><stop offset="1" stop-color="#6d6e71"/></linearGradient><linearGradient id="linear-gradient-3" x1="2484.24" y1="1600.1" x2="1906.79" y2="594.31" xlink:href="#linear-gradient"/><linearGradient id="linear-gradient-4" x1="3387.91" y1="1516.37" x2="2032.4" y2="673.25" xlink:href="#linear-gradient"/><linearGradient id="linear-gradient-5" x1="1866.07" y1="1380.68" x2="2156.11" y2="1668" gradientUnits="userSpaceOnUse"><stop offset="0" stop-color="#fff"/><stop offset="0.56" stop-color="#b2d5e9"/><stop offset="1" stop-color="#78b6d8"/></linearGradient></defs><title>bckgrd-maintenance</title><g class="cls-1"><g id="background"><rect class="cls-2" x="0.15" width="3199.99" height="2000.14"/><path class="cls-3" d="M1043,2000.11C1940.62,1135.86-444,790.4,315.65.33h2884.5V2000.14Z"/><path class="cls-4" d="M2362.61,819.85c-229.18-79.85-479.44-15.49-709.09-105.66-192.46-75.57-369.06-195.87-502.44-354.64C1107.8,308,1070.84,251.83,1038.36,193c-26-47.07-90-136.74-91.38-190.53,2.26,88.62,15.63,174.1,31.07,270.19,3.53,14.21,7.45,27.79,11.57,40.94,174.63,552.83,593.43,617.1,856.44,759.46,582.63,258.73-308,684.82,385.33,927.11h968.75c-242.45-38.53-597.13-100-725.8-342.65-89.73-169.24-3.52-335.56,38.83-502.55,36.74-144.83,4.07-280.63-148.54-334.39Z"/><polygon class="cls-4" points="2423.09 321.84 2311.74 276.6 2409.15 328.04 2351.57 367.42 2241.86 247.45 2474.86 287.66 2423.09 321.84"/><polygon class="cls-5" points="2241.86 247.45 2423.09 321.84 2421.43 367.25 2409.15 328.04 2241.86 247.45"/><polygon class="cls-6" points="2393.88 338.43 2409.15 328.04 2421.43 367.25 2393.88 338.43"/><polygon class="cls-7" points="2507.13 808.53 2506.79 809.88 2506.3 811.05 2505.97 812.39 2505.63 813.73 2505.14 814.9 2504.8 816.24 2504.31 817.58 2503.97 818.76 2503.81 819.43 2507.95 820.09 2508.29 818.76 2508.79 817.58 2509.12 816.24 2509.45 814.9 2509.95 813.73 2510.28 812.39 2510.78 811.05 2511.1 809.71 2511.44 808.53 2507.46 807.36 2507.13 808.53"/><polygon class="cls-7" points="2582.97 596.07 2582.97 597.41 2583.13 598.75 2583.3 600.09 2583.3 601.43 2583.46 602.77 2583.46 604.11 2583.63 605.45 2583.63 606.79 2583.63 607.13 2587.78 606.63 2587.78 605.29 2587.61 603.94 2587.61 602.6 2587.45 601.26 2587.45 599.75 2587.28 598.42 2587.12 597.08 2587.12 595.73 2586.95 594.23 2582.79 594.73 2582.97 596.07"/><polygon class="cls-7" points="2569.86 675.83 2569.36 676.84 2568.86 677.84 2568.36 678.67 2567.86 679.68 2567.36 680.69 2566.87 681.53 2566.2 682.53 2565.71 683.36 2565.21 684.38 2564.55 685.21 2564.21 685.89 2568.03 687.39 2568.69 686.55 2569.19 685.55 2569.86 684.54 2570.35 683.7 2570.86 682.7 2571.51 681.69 2572.01 680.69 2572.51 679.68 2573.01 678.67 2573.51 677.67 2573.83 677 2570.18 675.16 2569.86 675.83"/><polygon class="cls-7" points="2577.33 657.06 2576.99 658.23 2576.66 659.24 2576.33 660.41 2575.83 661.42 2575.5 662.59 2575.16 663.6 2574.67 664.6 2574.34 665.77 2574.01 666.78 2573.51 667.62 2577.82 668.29 2578.15 667.28 2578.65 666.11 2578.99 665.11 2579.48 663.93 2579.81 662.76 2580.15 661.76 2580.64 660.58 2580.97 659.41 2581.31 658.23 2581.64 657.23 2577.66 656.05 2577.33 657.06"/><polygon class="cls-7" points="2587.28 626.57 2587.45 625.22 2587.45 624.05 2587.61 622.71 2587.61 621.37 2587.78 620.03 2587.78 618.69 2587.78 617.52 2587.78 616.18 2587.78 615.34 2583.63 615.34 2583.63 616.01 2583.63 617.35 2583.63 618.69 2583.63 619.87 2583.46 621.21 2583.46 622.37 2583.3 623.71 2583.3 625.05 2583.13 626.23 2583.13 627.57 2582.97 627.74 2587.12 627.9 2587.28 626.57"/><polygon class="cls-7" points="2581.97 636.12 2581.8 637.29 2581.64 638.63 2581.47 639.8 2581.31 640.98 2580.97 642.15 2580.81 643.32 2580.48 644.49 2580.31 645.67 2579.98 646.84 2579.81 648.01 2583.8 649.02 2584.12 647.84 2584.29 646.68 2584.62 645.33 2584.79 644.16 2585.12 642.99 2585.29 641.65 2585.62 640.47 2585.79 639.3 2585.95 637.96 2586.12 636.79 2586.12 636.45 2582.14 635.95 2581.97 636.12"/><polygon class="cls-7" points="2512.93 787.59 2512.6 788.93 2512.28 790.27 2511.94 791.61 2511.6 792.95 2511.1 794.3 2510.78 795.46 2510.45 796.8 2510.11 798.15 2509.77 799.49 2514.1 799.32 2514.43 797.98 2514.76 796.64 2515.26 795.3 2515.59 793.96 2515.93 792.62 2516.25 791.28 2516.59 789.94 2516.92 788.59 2516.92 788.26 2512.93 787.25 2512.93 787.59"/><polygon class="cls-7" points="2555.92 696.94 2555.25 697.78 2554.59 698.45 2553.92 699.29 2553.26 699.96 2552.6 700.79 2551.94 701.46 2551.44 701.8 2554.92 704.32 2555.58 703.65 2556.25 702.81 2557.07 702.13 2557.74 701.29 2558.41 700.46 2559.07 699.62 2559.9 698.78 2560.56 698.11 2561.22 697.28 2561.89 696.44 2562.55 695.44 2562.72 695.1 2559.4 692.58 2559.23 692.92 2558.57 693.75 2557.91 694.59 2557.24 695.44 2556.58 696.1 2555.92 696.94"/><polygon class="cls-7" points="2558.24 518.15 2558.57 518.99 2559.07 519.83 2559.57 520.67 2559.9 521.5 2560.39 522.35 2560.89 523.35 2561.22 524.19 2561.72 525.02 2562.05 525.86 2562.55 526.7 2562.89 527.54 2566.2 524.86 2565.88 523.86 2565.37 523.01 2565.05 522.17 2564.55 521.34 2564.05 520.5 2563.71 519.66 2563.22 518.83 2562.72 517.98 2562.39 517.15 2561.89 516.31 2561.39 515.3 2560.89 514.47 2557.24 516.47 2557.74 517.32 2558.24 518.15"/><polygon class="cls-7" points="2547.62 500.06 2548.11 500.89 2548.61 501.73 2549.11 502.57 2549.61 503.41 2550.11 504.25 2550.61 504.91 2551.1 505.75 2551.6 506.59 2552.09 507.43 2552.6 508.27 2553.1 509.11 2553.1 509.27 2556.58 506.93 2556.08 506.09 2555.58 505.25 2555.09 504.41 2554.59 503.58 2554.09 502.74 2553.59 501.9 2553.1 501.06 2552.6 500.23 2552.09 499.56 2551.6 498.71 2551.1 497.88 2550.44 497.04 2550.11 496.37 2546.62 498.55 2546.96 499.22 2547.62 500.06"/><polygon class="cls-7" points="2566.87 536.08 2567.21 536.92 2567.53 537.76 2568.03 538.6 2568.36 539.43 2568.69 540.27 2569.03 541.11 2569.36 541.95 2569.69 542.96 2570.02 543.8 2570.35 544.63 2570.69 545.47 2571.02 546.3 2571.18 546.47 2575 544.8 2574.67 543.96 2574.34 543.12 2574.01 542.12 2573.51 541.27 2573.17 540.44 2572.84 539.6 2572.51 538.6 2572.18 537.76 2571.85 536.92 2571.35 536.08 2571.02 535.25 2570.69 534.24 2570.35 533.4 2570.18 533.24 2566.38 535.08 2566.53 535.08 2566.87 536.08"/><polygon class="cls-7" points="2574.17 555.02 2574.51 555.85 2574.67 556.69 2575 557.53 2575.34 558.54 2575.5 559.37 2575.83 560.21 2576.16 561.05 2576.33 561.88 2576.66 562.89 2576.82 563.73 2577.16 564.57 2577.33 565.41 2577.49 566.24 2581.31 564.4 2581.14 563.4 2580.81 562.56 2580.64 561.72 2580.31 560.72 2579.98 559.88 2579.81 559.04 2579.48 558.04 2579.32 557.19 2578.99 556.36 2578.65 555.52 2578.32 554.51 2578.15 553.68 2577.82 553.01 2574.01 554.35 2574.17 555.02"/><polygon class="cls-7" points="2579.64 575.12 2579.81 575.96 2579.98 576.8 2580.15 577.64 2580.48 578.64 2580.64 579.48 2580.81 580.31 2580.81 581.15 2580.97 582 2581.14 583 2581.31 583.84 2581.47 584.67 2581.64 585.51 2581.8 586.52 2585.79 585.01 2585.62 584 2585.45 583.16 2585.29 582.33 2585.12 581.32 2584.96 580.48 2584.79 579.48 2584.62 578.64 2584.46 577.8 2584.29 576.8 2584.12 575.96 2583.97 575.12 2583.8 574.12 2583.46 573.28 2579.48 574.29 2579.64 575.12"/><polygon class="cls-7" points="2518.91 722.24 2518.08 722.57 2517.25 722.91 2519.24 726.6 2520.23 726.26 2521.24 725.93 2522.23 725.59 2523.23 725.26 2524.22 724.92 2525.05 724.59 2526.04 724.09 2527.04 723.75 2528.04 723.25 2528.87 722.91 2529.86 722.41 2530.35 722.24 2528.54 718.39 2528.04 718.73 2527.21 719.06 2526.21 719.39 2525.38 719.89 2524.55 720.24 2523.56 720.57 2522.72 720.9 2521.73 721.24 2520.9 721.74 2519.91 721.91 2518.91 722.24"/><polygon class="cls-7" points="2479.57 729.28 2480.74 729.45 2481.9 729.62 2482.9 729.78 2484.06 729.95 2485.22 729.95 2486.38 730.12 2487.55 730.12 2488.54 730.28 2489.04 730.28 2489.2 726.1 2488.88 726.1 2487.71 725.93 2486.72 725.93 2485.55 725.76 2484.55 725.76 2483.4 725.59 2482.4 725.42 2481.24 725.26 2480.25 725.09 2479.07 724.92 2477.92 724.76 2477.09 724.59 2477.26 728.94 2478.42 729.12 2479.57 729.28"/><polygon class="cls-7" points="2525.88 663.43 2525.88 663.77 2526.04 665.11 2526.04 666.28 2526.04 667.62 2526.21 668.79 2526.21 670.13 2526.21 671.31 2526.38 672.48 2526.38 673.82 2526.38 675.16 2526.38 675.99 2530.52 674.99 2530.52 673.65 2530.52 672.48 2530.35 671.13 2530.35 669.8 2530.35 668.62 2530.19 667.28 2530.19 666.11 2530.19 664.77 2530.02 663.6 2530.02 663.26 2525.88 663.43"/><polygon class="cls-7" points="2528.54 646.34 2528.37 645.16 2528.2 644 2528.04 642.82 2527.87 642.15 2523.89 642.82 2523.89 643.32 2524.06 644.49 2524.22 645.67 2524.39 646.84 2524.55 648.01 2524.71 649.19 2524.71 650.52 2524.89 651.7 2525.05 652.87 2525.22 654.04 2525.22 655.22 2529.36 653.71 2529.19 652.37 2529.03 651.2 2528.87 650.02 2528.7 648.85 2528.7 647.51 2528.54 646.34"/><polygon class="cls-7" points="2501.15 827.31 2500.99 827.63 2500.49 828.81 2500.47 828.87 2504.97 828.87 2504.97 828.64 2501.15 827.31"/><polygon class="cls-7" points="2516.92 770.34 2516.59 771.67 2516.25 773.01 2515.93 774.35 2515.76 775.7 2515.43 777.03 2515.09 778.38 2514.92 779.22 2519.08 779.38 2519.41 777.87 2519.74 776.54 2520.07 775.19 2520.41 773.85 2520.57 772.51 2520.9 771.17 2521.24 769.83 2521.56 768.49 2521.56 767.82 2517.58 766.98 2517.41 767.65 2517.08 768.99 2516.92 770.34"/><polygon class="cls-7" points="2353.79 626.06 2354.61 627.57 2355.45 629.08 2356.28 630.59 2357.1 632.26 2357.93 633.77 2361.59 631.76 2360.76 630.25 2359.93 628.74 2359.1 627.24 2358.27 625.73 2357.61 624.22 2356.94 622.71 2356.28 621.21 2355.95 620.7 2352.46 623.05 2353.13 624.56 2353.79 626.06"/><polygon class="cls-7" points="2345.49 602.6 2345.82 604.11 2346.15 605.45 2346.49 606.79 2346.98 608.3 2347.32 609.64 2347.82 611.15 2348.31 612.66 2348.82 614 2348.97 614.5 2352.79 613.16 2352.63 612.66 2352.3 611.32 2351.8 609.81 2351.3 608.47 2350.97 607.13 2350.47 605.79 2350.14 604.45 2349.8 602.94 2349.47 601.77 2349.47 601.26 2345.49 602.6"/><polygon class="cls-7" points="2526.87 737.32 2527.04 735.98 2527.21 734.65 2527.37 733.31 2527.54 731.96 2527.71 730.62 2527.87 729.28 2528.04 727.94 2528.2 726.6 2528.2 726.26 2524.06 725.76 2524.06 726.1 2523.89 727.44 2523.72 728.77 2523.56 730.12 2523.39 731.46 2523.23 732.8 2523.06 734.14 2522.89 735.48 2522.72 736.82 2522.56 738.16 2526.55 738.66 2526.87 737.32"/><polygon class="cls-7" points="2530.52 694.42 2530.52 693.09 2530.52 691.91 2530.52 690.58 2530.52 689.23 2530.52 687.89 2530.69 686.55 2530.69 685.38 2530.69 684.21 2526.55 684.21 2526.55 685.21 2526.55 686.55 2526.38 687.89 2526.38 689.23 2526.38 690.41 2526.38 691.75 2526.38 693.09 2526.38 694.42 2526.21 695.6 2526.21 696.77 2530.35 695.77 2530.52 694.42"/><polygon class="cls-7" points="2521.06 747.55 2520.9 748.88 2520.74 750.22 2520.41 751.56 2520.23 752.91 2519.91 754.25 2519.74 755.59 2519.57 756.93 2519.24 758.27 2519.08 758.77 2523.39 759.11 2523.56 757.76 2523.89 756.42 2524.06 754.91 2524.22 753.58 2524.55 752.23 2524.71 750.89 2525.05 749.55 2525.22 748.22 2525.38 747.21 2521.24 746.54 2521.06 747.55"/><polygon class="cls-7" points="2543.81 708.84 2542.97 709.34 2542.31 710.01 2541.48 710.68 2540.65 711.18 2539.82 711.69 2538.99 712.36 2538.16 712.85 2537.5 713.36 2536.66 713.87 2535.84 714.53 2535.67 714.53 2538 718.05 2538.82 717.55 2539.65 716.89 2540.48 716.38 2541.31 715.71 2542.31 715.21 2543.13 714.53 2543.97 714.03 2544.79 713.36 2545.46 712.69 2546.29 712.02 2547.12 711.52 2547.95 710.85 2548.11 710.68 2545.46 707.33 2545.3 707.5 2544.63 708.17 2543.81 708.84"/><polygon class="cls-7" points="2525.72 706.15 2525.72 707.5 2525.54 708.84 2525.54 710.18 2525.38 711.35 2525.22 712.69 2525.22 714.03 2525.05 715.37 2524.89 716.71 2524.89 717.55 2529.03 717.05 2529.19 715.71 2529.36 714.37 2529.36 713.02 2529.53 711.69 2529.7 710.34 2529.7 709.01 2529.86 707.66 2529.86 706.33 2530.02 705.32 2525.88 704.98 2525.72 706.15"/><polygon class="cls-7" points="2526.04 631.09 2525.88 629.91 2525.72 628.74 2525.38 627.57 2525.22 626.57 2524.89 625.39 2524.71 624.22 2524.39 623.22 2524.22 622.04 2524.06 621.37 2519.91 622.37 2520.07 623.05 2520.41 624.05 2520.57 625.22 2520.9 626.23 2521.06 627.4 2521.4 628.58 2521.56 629.58 2521.73 630.76 2522.07 631.93 2522.23 632.93 2522.39 634.11 2522.56 634.61 2526.55 633.44 2526.38 632.26 2526.04 631.09"/><polygon class="cls-7" points="2469.95 537.59 2468.79 536.75 2467.64 536.08 2466.63 535.41 2464.48 539.1 2465.47 539.6 2466.47 540.27 2467.64 541.11 2468.79 541.77 2469.95 542.62 2471.11 543.45 2472.11 544.29 2473.27 545.13 2474.44 545.97 2474.6 545.97 2476.92 542.62 2475.76 541.77 2474.6 540.77 2473.44 539.93 2472.28 539.1 2471.11 538.43 2469.95 537.59"/><polygon class="cls-7" points="2407.23 692.08 2408.38 693.26 2409.71 694.26 2411.04 695.44 2412.2 696.44 2412.87 696.94 2415.52 693.75 2414.86 693.26 2413.7 692.25 2412.37 691.08 2411.04 690.07 2409.88 688.9 2408.55 687.89 2407.39 686.72 2406.06 685.71 2404.57 689.9 2405.9 691.08 2407.23 692.08"/><polygon class="cls-7" points="2395.94 675.83 2394.61 674.65 2393.45 673.31 2392.12 671.98 2391.46 671.13 2389.13 674.83 2390.46 676.16 2391.63 677.5 2392.95 678.84 2394.28 680.18 2395.6 681.36 2396.94 682.7 2397.27 683.03 2400.09 680.02 2399.76 679.68 2398.43 678.51 2397.27 677.17 2395.94 675.83"/><polygon class="cls-7" points="2407.56 525.02 2408.72 525.02 2409.88 524.86 2411.04 524.86 2412.2 524.86 2413.36 524.69 2414.53 524.69 2415.69 524.69 2416.85 524.69 2418.01 524.86 2418.51 524.86 2418.18 520.67 2416.85 520.5 2415.69 520.5 2414.53 520.5 2413.2 520.5 2412.04 520.67 2410.88 520.67 2409.55 520.67 2408.38 520.83 2407.23 520.83 2406.06 521 2405.9 521 2406.4 525.19 2407.56 525.02"/><polygon class="cls-7" points="2428.63 525.69 2429.8 526.03 2431.12 526.2 2432.28 526.37 2433.45 526.7 2434.61 526.87 2435.93 527.2 2437.09 527.54 2438.26 527.7 2438.42 527.87 2439.25 523.68 2438.09 523.35 2436.76 523.01 2435.6 522.84 2434.28 522.51 2433.11 522.35 2431.78 522.01 2430.63 521.84 2429.3 521.67 2428.14 521.5 2426.98 521.34 2426.47 525.53 2427.47 525.53 2428.63 525.69"/><polygon class="cls-7" points="2437.44 713.87 2438.76 714.7 2439.91 715.37 2441.24 716.05 2442.41 716.71 2443.74 717.21 2444.89 717.88 2446.22 718.56 2447.39 719.06 2448.38 719.56 2450.04 715.71 2449.21 715.37 2447.88 714.7 2446.72 714.2 2445.56 713.53 2444.39 712.85 2443.23 712.36 2441.91 711.69 2440.74 711.01 2439.58 710.34 2439.25 710.18 2437.44 713.87"/><polygon class="cls-7" points="2386.98 529.54 2387.97 529.22 2389.13 528.88 2390.14 528.54 2391.13 528.21 2392.12 527.87 2393.29 527.54 2394.28 527.37 2395.44 527.03 2396.44 526.87 2397.6 526.53 2398.27 526.37 2396.6 522.51 2395.6 522.68 2394.44 523.01 2393.29 523.35 2392.12 523.51 2390.96 523.86 2389.96 524.19 2388.81 524.52 2387.81 524.86 2386.65 525.35 2385.65 525.69 2385.16 525.86 2386.65 529.72 2386.98 529.54"/><polygon class="cls-7" points="2422.49 704.32 2423.65 705.15 2424.98 705.99 2426.15 706.83 2427.47 707.66 2428.8 708.5 2429.96 709.34 2432.12 705.82 2430.95 704.98 2429.8 704.32 2428.47 703.47 2427.3 702.64 2426.15 701.8 2424.82 700.79 2423.65 699.96 2422.32 698.95 2421.99 698.78 2419.83 702.47 2421.17 703.31 2422.49 704.32"/><polygon class="cls-7" points="2355.78 554.18 2356.45 553.35 2356.94 552.5 2357.61 551.67 2358.1 550.83 2358.76 549.99 2359.43 549.16 2359.93 548.48 2360.59 547.64 2361.26 546.81 2361.91 546.13 2362.75 545.3 2363.09 544.96 2359.76 542.45 2358.93 543.29 2358.27 544.13 2357.44 544.96 2356.78 545.8 2356.11 546.64 2355.45 547.48 2354.78 548.32 2354.12 549.16 2353.45 550.16 2352.95 551 2352.3 552 2352.13 552.17 2355.78 554.35 2355.78 554.18"/><polygon class="cls-7" points="2377.85 655.55 2375.86 659.74 2377.18 661.42 2378.68 663.26 2380.18 664.94 2381.67 666.61 2382.66 667.95 2385.81 665.11 2384.66 663.77 2383.16 662.08 2381.83 660.41 2380.5 658.74 2379.01 657.23 2377.85 655.55"/><polygon class="cls-7" points="2343.5 590.37 2343.66 591.71 2343.83 593.05 2343.83 593.89 2347.98 593.22 2347.98 592.55 2347.82 591.38 2347.65 590.21 2347.65 588.87 2347.47 587.69 2347.47 586.52 2347.47 585.18 2347.47 584 2347.47 582.83 2347.47 581.66 2347.47 581.15 2343.33 581.49 2343.33 582.83 2343.33 584 2343.33 585.34 2343.33 586.52 2343.33 587.86 2343.5 589.2 2343.5 590.37"/><polygon class="cls-7" points="2348.65 572.78 2348.82 571.6 2348.97 570.6 2349.3 569.6 2349.64 568.42 2349.8 567.42 2350.14 566.41 2350.47 565.41 2350.8 564.4 2351.3 563.4 2351.63 562.39 2351.96 561.56 2347.82 560.88 2347.32 561.88 2346.98 563.06 2346.65 564.06 2346.32 565.24 2345.99 566.24 2345.66 567.42 2345.32 568.42 2344.99 569.6 2344.83 570.77 2344.5 571.94 2344.5 572.27 2348.48 573.11 2348.65 572.78"/><polygon class="cls-7" points="2363.74 643.32 2364.91 645 2365.9 646.5 2367.06 648.18 2368.22 649.86 2369.39 651.53 2369.55 651.53 2372.71 649.02 2371.54 647.35 2370.38 645.84 2369.39 644.16 2368.22 642.65 2367.23 640.98 2366.23 639.47 2365.74 638.8 2362.75 641.65 2363.74 643.32"/><polygon class="cls-7" points="2369.55 539.26 2370.38 538.6 2371.21 537.93 2372.05 537.42 2372.87 536.75 2373.7 536.25 2374.7 535.58 2375.53 535.08 2376.35 534.58 2377.35 534.07 2378.35 533.57 2379.18 533.06 2379.35 533.06 2377.35 529.38 2376.35 529.88 2375.36 530.38 2374.37 530.89 2373.38 531.56 2372.55 532.06 2371.54 532.73 2370.55 533.24 2369.72 533.9 2368.72 534.58 2367.89 535.25 2367.06 535.92 2366.57 536.25 2369.06 539.6 2369.55 539.26"/><polygon class="cls-7" points="2503.47 725.76 2502.48 725.76 2501.31 725.93 2500.32 725.93 2499.33 726.1 2498.33 726.1 2497.34 726.1 2498.49 730.28 2499.66 730.28 2500.66 730.12 2501.82 730.12 2502.81 729.95 2503.97 729.78 2504.97 729.78 2505.97 729.62 2507.13 729.45 2508.12 729.28 2509.12 729.12 2510.11 728.94 2509.45 724.76 2508.45 724.92 2507.46 725.09 2506.46 725.26 2505.47 725.42 2504.47 725.59 2503.47 725.76"/><polygon class="cls-7" points="2506.96 586.52 2507.8 588.19 2508.45 589.71 2509.28 591.38 2509.95 592.88 2510.78 594.55 2510.95 595.06 2514.59 592.88 2513.76 591.21 2513.1 589.53 2512.28 587.86 2511.44 586.35 2510.61 584.67 2509.95 583.16 2509.12 581.83 2505.47 583.84 2506.13 585.01 2506.96 586.52"/><polygon class="cls-7" points="2502.97 571.27 2501.98 569.93 2501.15 568.42 2500.15 567.08 2499.16 565.91 2498.16 564.57 2497.84 563.89 2494.51 566.57 2494.84 567.08 2495.84 568.25 2496.84 569.6 2497.66 570.93 2498.49 572.27 2499.49 573.61 2500.32 574.95 2501.15 576.3 2501.49 576.63 2504.8 574.12 2503.81 572.61 2502.97 571.27"/><polygon class="cls-7" points="2535.5 482.63 2536 483.47 2536.66 484.14 2537.16 484.98 2537.66 485.81 2538.32 486.48 2538.82 487.32 2539.48 488.16 2539.98 488.83 2540.48 489.67 2541.15 490.51 2541.64 491.35 2541.98 491.68 2545.14 488.83 2544.46 488.16 2543.97 487.32 2543.3 486.48 2542.81 485.65 2542.31 484.8 2541.64 484.14 2541.15 483.3 2540.48 482.47 2539.98 481.63 2539.32 480.96 2538.82 480.12 2538.16 479.28 2538 479.11 2534.67 481.63 2534.84 481.79 2535.5 482.63"/><polygon class="cls-7" points="2508.95 451.8 2509.77 452.47 2510.45 453.14 2511.1 453.81 2511.78 454.49 2512.44 455.15 2513.1 455.99 2513.76 456.66 2514.43 457.33 2514.92 458 2515.59 458.84 2516.25 459.34 2518.74 455.99 2518.08 455.15 2517.41 454.49 2516.76 453.81 2516.09 452.97 2515.43 452.3 2514.76 451.63 2514.1 450.96 2513.27 450.13 2512.6 449.46 2511.94 448.78 2511.28 448.12 2510.61 447.44 2510.61 447.27 2507.62 450.29 2508.29 450.96 2508.95 451.8"/><polygon class="cls-7" points="2522.72 466.72 2523.39 467.55 2524.06 468.22 2524.55 468.89 2525.22 469.73 2525.88 470.4 2526.55 471.24 2527.04 471.91 2527.71 472.74 2528.37 473.41 2528.87 474.25 2529.53 474.93 2529.7 475.09 2532.68 472.41 2532.19 471.57 2531.52 470.73 2530.86 470.06 2530.35 469.23 2529.7 468.56 2529.03 467.72 2528.37 467.05 2527.71 466.21 2527.21 465.54 2526.55 464.7 2525.88 464.03 2525.22 463.19 2524.89 462.86 2521.73 465.54 2522.07 466.04 2522.72 466.72"/><polygon class="cls-7" points="2518.08 601.6 2517.91 601.1 2513.93 602.6 2514.1 603.11 2514.76 604.78 2515.43 606.63 2515.93 608.47 2516.59 610.31 2517.08 612.15 2517.75 614 2517.91 614.5 2521.73 612.82 2521.06 610.82 2520.57 608.97 2519.91 607.13 2519.24 605.29 2518.74 603.45 2518.08 601.6"/><polygon class="cls-7" points="2453.02 528.38 2451.7 527.87 2450.54 527.37 2449.37 526.87 2448.04 526.37 2447.55 526.37 2446.22 530.22 2446.72 530.38 2447.88 530.89 2449.05 531.22 2450.21 531.73 2451.37 532.23 2452.53 532.73 2453.69 533.24 2455.02 533.9 2456.18 534.4 2457.34 535.08 2457.51 535.08 2459.17 531.22 2458.01 530.73 2456.68 530.05 2455.52 529.54 2454.19 528.88 2453.02 528.38"/><polygon class="cls-7" points="2461.49 411.59 2462.15 412.09 2462.99 412.76 2463.81 413.26 2464.48 413.76 2465.31 414.26 2465.97 414.77 2466.8 415.27 2467.46 415.78 2468.29 416.44 2468.96 416.94 2469.79 417.45 2470.12 417.78 2472.11 414.1 2471.44 413.59 2470.62 412.93 2469.95 412.42 2469.12 411.92 2468.29 411.42 2467.64 410.75 2466.8 410.25 2466.14 409.75 2465.31 409.24 2464.48 408.73 2463.81 408.23 2462.99 407.73 2462.32 407.23 2460 410.75 2460.66 411.08 2461.49 411.59"/><polygon class="cls-7" points="2457.68 718.89 2457.18 723.25 2458.34 723.75 2459.5 724.09 2460.66 724.59 2461.98 724.92 2463.16 725.42 2464.31 725.76 2465.47 726.1 2466.63 726.44 2467.8 726.77 2468.13 726.93 2469.29 722.75 2468.96 722.75 2467.8 722.41 2466.63 722.08 2465.47 721.74 2464.31 721.41 2463.16 721.07 2461.98 720.57 2460.99 720.24 2459.83 719.73 2458.5 719.39 2457.68 718.89"/><polygon class="cls-7" points="2493.85 437.06 2494.51 437.73 2495.18 438.39 2496.01 439.06 2496.67 439.57 2497.34 440.24 2498 440.9 2498.66 441.58 2499.49 442.25 2500.15 442.92 2500.82 443.59 2501.49 444.26 2501.82 444.43 2504.31 441.25 2503.64 440.57 2502.97 439.9 2502.32 439.23 2501.49 438.57 2500.82 437.89 2500.15 437.22 2499.49 436.55 2498.66 435.88 2498 435.21 2497.34 434.54 2496.51 433.87 2495.84 433.37 2495.34 432.87 2492.69 436.05 2493.02 436.38 2493.85 437.06"/><polygon class="cls-7" points="2443.9 400.7 2444.73 401.2 2445.56 401.7 2446.22 402.04 2447.05 402.54 2447.72 403.04 2448.54 403.38 2449.37 403.88 2450.04 404.39 2450.87 404.88 2451.53 405.22 2452.37 405.72 2453.02 406.23 2454.52 402.2 2453.69 401.7 2453.02 401.2 2452.19 400.7 2451.37 400.36 2450.7 399.86 2449.87 399.36 2449.05 398.85 2448.38 398.51 2447.55 398.02 2446.72 397.51 2446.06 397.17 2445.23 396.67 2444.39 396.17 2442.41 399.86 2443.23 400.36 2443.9 400.7"/><polygon class="cls-7" points="2486.88 551.5 2485.88 550.49 2484.72 549.32 2483.73 548.32 2483.56 548.32 2480.74 551.33 2480.9 551.5 2481.9 552.5 2482.9 553.51 2484.06 554.51 2485.06 555.52 2486.05 556.53 2487.05 557.69 2488.04 558.7 2489.04 559.88 2489.37 560.21 2492.19 557.19 2491.2 556.02 2490.21 554.85 2489.04 553.68 2488.04 552.5 2486.88 551.5"/><polygon class="cls-7" points="2477.92 423.65 2478.58 424.15 2479.42 424.82 2480.07 425.33 2480.9 425.99 2481.57 426.66 2482.24 427.17 2483.06 427.83 2483.73 428.34 2484.55 429.01 2485.22 429.51 2485.88 430.18 2486.38 430.52 2488.54 427 2487.88 426.33 2487.05 425.83 2486.38 425.15 2485.72 424.49 2484.89 423.99 2484.22 423.31 2483.4 422.64 2482.73 422.14 2481.9 421.47 2481.24 420.97 2480.41 420.3 2479.75 419.8 2479.25 419.46 2476.76 422.81 2477.09 423.14 2477.92 423.65"/><polygon class="cls-4" points="1395.47 299.93 1506.82 254.69 1409.41 306.13 1466.99 345.51 1576.7 225.54 1343.7 265.75 1395.47 299.93"/><polygon class="cls-5" points="1576.7 225.54 1395.47 299.93 1397.13 345.34 1409.41 306.13 1576.7 225.54"/><polygon class="cls-6" points="1424.68 316.52 1409.41 306.13 1397.13 345.34 1424.68 316.52"/><polygon class="cls-7" points="1311.44 786.62 1311.77 787.97 1312.26 789.14 1312.59 790.48 1312.93 791.82 1313.42 792.99 1313.76 794.33 1314.25 795.67 1314.59 796.85 1314.75 797.52 1310.61 798.18 1310.28 796.85 1309.77 795.67 1309.44 794.33 1309.11 792.99 1308.61 791.82 1308.29 790.48 1307.78 789.14 1307.46 787.8 1307.12 786.62 1311.1 785.45 1311.44 786.62"/><polygon class="cls-7" points="1235.6 574.16 1235.6 575.5 1235.43 576.84 1235.26 578.18 1235.26 579.52 1235.1 580.86 1235.1 582.2 1234.93 583.54 1234.93 584.88 1234.93 585.22 1230.78 584.72 1230.78 583.38 1230.95 582.03 1230.95 580.69 1231.11 579.35 1231.11 577.85 1231.28 576.51 1231.44 575.17 1231.44 573.82 1231.61 572.32 1235.77 572.82 1235.6 574.16"/><polygon class="cls-7" points="1248.7 653.92 1249.2 654.92 1249.7 655.93 1250.2 656.76 1250.7 657.77 1251.2 658.77 1251.69 659.62 1252.36 660.62 1252.85 661.45 1253.36 662.47 1254.01 663.3 1254.35 663.98 1250.53 665.48 1249.87 664.64 1249.37 663.64 1248.7 662.63 1248.21 661.79 1247.7 660.79 1247.05 659.78 1246.55 658.77 1246.05 657.77 1245.55 656.76 1245.05 655.76 1244.73 655.09 1248.38 653.25 1248.7 653.92"/><polygon class="cls-7" points="1241.23 635.15 1241.57 636.32 1241.9 637.33 1242.23 638.5 1242.73 639.51 1243.07 640.68 1243.4 641.69 1243.89 642.69 1244.23 643.86 1244.55 644.87 1245.05 645.71 1240.74 646.38 1240.41 645.37 1239.91 644.2 1239.58 643.2 1239.09 642.02 1238.75 640.85 1238.41 639.85 1237.92 638.67 1237.59 637.5 1237.25 636.32 1236.92 635.32 1240.9 634.14 1241.23 635.15"/><polygon class="cls-7" points="1231.28 604.66 1231.11 603.31 1231.11 602.14 1230.95 600.8 1230.95 599.46 1230.78 598.12 1230.78 596.78 1230.78 595.61 1230.78 594.27 1230.78 593.43 1234.93 593.43 1234.93 594.1 1234.93 595.43 1234.93 596.78 1234.93 597.96 1235.1 599.3 1235.1 600.46 1235.26 601.8 1235.26 603.14 1235.43 604.32 1235.43 605.66 1235.6 605.83 1231.44 605.99 1231.28 604.66"/><polygon class="cls-7" points="1236.59 614.21 1236.76 615.38 1236.92 616.72 1237.09 617.89 1237.25 619.07 1237.59 620.24 1237.75 621.41 1238.08 622.58 1238.25 623.76 1238.58 624.93 1238.75 626.1 1234.77 627.11 1234.44 625.93 1234.27 624.77 1233.94 623.42 1233.77 622.25 1233.44 621.08 1233.27 619.74 1232.94 618.56 1232.78 617.39 1232.62 616.05 1232.44 614.88 1232.44 614.54 1236.42 614.04 1236.59 614.21"/><polygon class="cls-7" points="1305.63 765.68 1305.96 767.02 1306.28 768.36 1306.62 769.7 1306.96 771.04 1307.46 772.39 1307.78 773.55 1308.11 774.89 1308.45 776.24 1308.79 777.58 1304.46 777.41 1304.13 776.07 1303.8 774.73 1303.3 773.39 1302.98 772.05 1302.63 770.71 1302.31 769.37 1301.97 768.03 1301.64 766.68 1301.64 766.35 1305.63 765.35 1305.63 765.68"/><polygon class="cls-7" points="1262.64 675.03 1263.31 675.87 1263.97 676.54 1264.64 677.38 1265.3 678.05 1265.96 678.88 1266.63 679.55 1267.12 679.89 1263.64 682.41 1262.98 681.74 1262.31 680.89 1261.49 680.22 1260.82 679.38 1260.16 678.55 1259.49 677.71 1258.66 676.87 1258 676.2 1257.34 675.37 1256.67 674.53 1256.01 673.52 1255.84 673.19 1259.16 670.67 1259.33 671.01 1259.99 671.84 1260.65 672.68 1261.32 673.52 1261.98 674.19 1262.64 675.03"/><polygon class="cls-7" points="1260.32 496.24 1259.99 497.07 1259.49 497.92 1258.99 498.76 1258.66 499.59 1258.17 500.44 1257.67 501.44 1257.34 502.28 1256.84 503.11 1256.51 503.95 1256.01 504.79 1255.67 505.63 1252.36 502.94 1252.68 501.94 1253.19 501.1 1253.51 500.26 1254.01 499.43 1254.51 498.59 1254.85 497.75 1255.34 496.92 1255.84 496.07 1256.17 495.24 1256.67 494.4 1257.17 493.39 1257.67 492.56 1261.32 494.56 1260.82 495.4 1260.32 496.24"/><polygon class="cls-7" points="1270.94 478.15 1270.45 478.99 1269.95 479.82 1269.45 480.66 1268.95 481.5 1268.45 482.34 1267.95 483 1267.46 483.84 1266.96 484.68 1266.47 485.52 1265.96 486.36 1265.46 487.2 1265.46 487.36 1261.98 485.01 1262.48 484.18 1262.98 483.34 1263.47 482.5 1263.97 481.67 1264.47 480.83 1264.97 479.99 1265.46 479.15 1265.96 478.32 1266.47 477.64 1266.96 476.8 1267.46 475.97 1268.13 475.13 1268.45 474.46 1271.94 476.64 1271.6 477.31 1270.94 478.15"/><polygon class="cls-7" points="1251.69 514.17 1251.35 515.01 1251.03 515.85 1250.53 516.68 1250.2 517.52 1249.87 518.36 1249.54 519.2 1249.2 520.04 1248.87 521.04 1248.54 521.89 1248.21 522.72 1247.88 523.56 1247.54 524.39 1247.38 524.56 1243.56 522.89 1243.89 522.05 1244.23 521.21 1244.55 520.21 1245.05 519.36 1245.39 518.53 1245.72 517.69 1246.05 516.68 1246.38 515.85 1246.71 515.01 1247.21 514.17 1247.54 513.34 1247.88 512.33 1248.21 511.49 1248.38 511.33 1252.18 513.17 1252.03 513.17 1251.69 514.17"/><polygon class="cls-7" points="1244.39 533.11 1244.06 533.94 1243.89 534.78 1243.56 535.62 1243.23 536.63 1243.07 537.46 1242.73 538.3 1242.4 539.14 1242.23 539.97 1241.9 540.99 1241.74 541.82 1241.4 542.65 1241.23 543.5 1241.07 544.33 1237.25 542.49 1237.42 541.49 1237.75 540.65 1237.92 539.81 1238.25 538.8 1238.58 537.97 1238.75 537.13 1239.09 536.13 1239.24 535.28 1239.58 534.45 1239.91 533.61 1240.24 532.6 1240.41 531.77 1240.74 531.1 1244.55 532.44 1244.39 533.11"/><polygon class="cls-7" points="1238.92 553.21 1238.75 554.05 1238.58 554.89 1238.41 555.73 1238.08 556.73 1237.92 557.57 1237.75 558.4 1237.75 559.24 1237.59 560.09 1237.42 561.09 1237.25 561.93 1237.09 562.76 1236.92 563.6 1236.76 564.61 1232.78 563.1 1232.94 562.09 1233.11 561.25 1233.27 560.42 1233.44 559.41 1233.6 558.57 1233.77 557.57 1233.94 556.73 1234.1 555.89 1234.27 554.89 1234.44 554.05 1234.6 553.21 1234.77 552.21 1235.1 551.37 1239.09 552.38 1238.92 553.21"/><polygon class="cls-7" points="1299.65 700.33 1300.48 700.66 1301.31 701 1299.32 704.69 1298.33 704.35 1297.33 704.02 1296.33 703.68 1295.33 703.35 1294.35 703.01 1293.52 702.68 1292.52 702.17 1291.52 701.84 1290.52 701.34 1289.69 701 1288.7 700.5 1288.21 700.33 1290.02 696.48 1290.52 696.82 1291.35 697.15 1292.35 697.48 1293.18 697.98 1294.01 698.33 1295 698.66 1295.84 698.99 1296.83 699.33 1297.66 699.83 1298.65 700 1299.65 700.33"/><polygon class="cls-7" points="1338.99 707.37 1337.82 707.54 1336.66 707.71 1335.66 707.87 1334.51 708.04 1333.34 708.04 1332.18 708.21 1331.02 708.21 1330.02 708.37 1329.52 708.37 1329.36 704.18 1329.68 704.18 1330.86 704.02 1331.85 704.02 1333.01 703.85 1334.01 703.85 1335.16 703.68 1336.16 703.51 1337.33 703.35 1338.31 703.18 1339.49 703.01 1340.64 702.85 1341.47 702.68 1341.3 707.03 1340.14 707.21 1338.99 707.37"/><polygon class="cls-7" points="1292.68 641.52 1292.68 641.86 1292.52 643.2 1292.52 644.37 1292.52 645.71 1292.35 646.88 1292.35 648.23 1292.35 649.4 1292.18 650.56 1292.18 651.91 1292.18 653.25 1292.18 654.08 1288.04 653.08 1288.04 651.74 1288.04 650.56 1288.21 649.22 1288.21 647.89 1288.21 646.71 1288.37 645.37 1288.37 644.2 1288.37 642.86 1288.54 641.69 1288.54 641.35 1292.68 641.52"/><polygon class="cls-7" points="1290.02 624.43 1290.19 623.25 1290.36 622.09 1290.52 620.91 1290.69 620.24 1294.68 620.91 1294.68 621.41 1294.51 622.58 1294.35 623.76 1294.17 624.93 1294.01 626.1 1293.85 627.28 1293.85 628.62 1293.67 629.79 1293.52 630.96 1293.35 632.13 1293.35 633.31 1289.2 631.8 1289.37 630.46 1289.53 629.29 1289.69 628.11 1289.86 626.94 1289.86 625.6 1290.02 624.43"/><polygon class="cls-7" points="1317.41 805.4 1317.57 805.72 1318.07 806.9 1318.09 806.96 1313.59 806.96 1313.59 806.73 1317.41 805.4"/><polygon class="cls-7" points="1301.64 748.42 1301.97 749.76 1302.31 751.1 1302.63 752.44 1302.81 753.79 1303.14 755.13 1303.47 756.47 1303.64 757.31 1299.48 757.47 1299.15 755.96 1298.82 754.63 1298.49 753.28 1298.15 751.94 1297.99 750.6 1297.66 749.26 1297.33 747.92 1297 746.58 1297 745.91 1300.98 745.07 1301.15 745.74 1301.48 747.08 1301.64 748.42"/><polygon class="cls-7" points="1464.77 604.15 1463.95 605.66 1463.11 607.17 1462.28 608.67 1461.46 610.35 1460.63 611.86 1456.97 609.85 1457.8 608.34 1458.63 606.83 1459.46 605.33 1460.29 603.82 1460.95 602.31 1461.62 600.8 1462.28 599.3 1462.62 598.79 1466.1 601.14 1465.43 602.65 1464.77 604.15"/><polygon class="cls-7" points="1473.07 580.69 1472.74 582.2 1472.41 583.54 1472.08 584.88 1471.58 586.39 1471.25 587.73 1470.74 589.24 1470.25 590.75 1469.74 592.09 1469.59 592.59 1465.77 591.25 1465.93 590.75 1466.26 589.41 1466.76 587.9 1467.26 586.56 1467.59 585.22 1468.09 583.88 1468.42 582.54 1468.76 581.03 1469.09 579.86 1469.09 579.35 1473.07 580.69"/><polygon class="cls-7" points="1291.69 715.41 1291.52 714.07 1291.35 712.74 1291.19 711.4 1291.02 710.05 1290.86 708.71 1290.69 707.37 1290.52 706.03 1290.36 704.69 1290.36 704.35 1294.51 703.85 1294.51 704.18 1294.68 705.53 1294.84 706.86 1295 708.21 1295.17 709.55 1295.33 710.89 1295.5 712.23 1295.67 713.57 1295.84 714.91 1296 716.25 1292.02 716.75 1291.69 715.41"/><polygon class="cls-7" points="1288.04 672.51 1288.04 671.18 1288.04 670 1288.04 668.66 1288.04 667.32 1288.04 665.98 1287.87 664.64 1287.87 663.47 1287.87 662.3 1292.02 662.3 1292.02 663.3 1292.02 664.64 1292.18 665.98 1292.18 667.32 1292.18 668.5 1292.18 669.84 1292.18 671.18 1292.18 672.51 1292.35 673.69 1292.35 674.87 1288.21 673.86 1288.04 672.51"/><polygon class="cls-7" points="1297.5 725.64 1297.66 726.97 1297.82 728.31 1298.15 729.65 1298.33 731 1298.65 732.34 1298.82 733.68 1298.99 735.02 1299.32 736.36 1299.48 736.86 1295.17 737.2 1295 735.85 1294.68 734.51 1294.51 733 1294.35 731.66 1294.01 730.32 1293.85 728.98 1293.52 727.64 1293.35 726.3 1293.18 725.3 1297.33 724.63 1297.5 725.64"/><polygon class="cls-7" points="1274.75 686.93 1275.59 687.43 1276.25 688.1 1277.08 688.77 1277.91 689.27 1278.74 689.77 1279.57 690.45 1280.4 690.94 1281.06 691.45 1281.9 691.96 1282.72 692.63 1282.89 692.63 1280.57 696.14 1279.74 695.64 1278.91 694.98 1278.08 694.47 1277.25 693.8 1276.25 693.29 1275.43 692.63 1274.59 692.12 1273.77 691.45 1273.1 690.78 1272.27 690.11 1271.44 689.61 1270.61 688.94 1270.45 688.77 1273.1 685.42 1273.27 685.59 1273.93 686.26 1274.75 686.93"/><polygon class="cls-7" points="1292.85 684.24 1292.85 685.59 1293.02 686.93 1293.02 688.27 1293.18 689.44 1293.35 690.78 1293.35 692.12 1293.52 693.46 1293.67 694.8 1293.67 695.64 1289.53 695.14 1289.37 693.8 1289.2 692.46 1289.2 691.12 1289.03 689.77 1288.87 688.43 1288.87 687.1 1288.7 685.75 1288.7 684.41 1288.54 683.41 1292.68 683.07 1292.85 684.24"/><polygon class="cls-7" points="1292.52 609.18 1292.68 608 1292.85 606.83 1293.18 605.66 1293.35 604.66 1293.67 603.48 1293.85 602.31 1294.17 601.3 1294.35 600.13 1294.51 599.46 1298.65 600.46 1298.49 601.14 1298.15 602.14 1297.99 603.31 1297.66 604.32 1297.5 605.49 1297.16 606.67 1297 607.67 1296.83 608.85 1296.5 610.02 1296.33 611.02 1296.17 612.2 1296 612.7 1292.02 611.53 1292.18 610.35 1292.52 609.18"/><polygon class="cls-7" points="1348.61 515.68 1349.77 514.84 1350.93 514.17 1351.93 513.5 1354.08 517.19 1353.09 517.69 1352.09 518.36 1350.93 519.2 1349.77 519.87 1348.61 520.71 1347.45 521.54 1346.45 522.38 1345.29 523.22 1344.12 524.06 1343.96 524.06 1341.64 520.71 1342.8 519.87 1343.96 518.86 1345.12 518.02 1346.28 517.19 1347.45 516.52 1348.61 515.68"/><polygon class="cls-7" points="1411.33 670.17 1410.18 671.35 1408.85 672.35 1407.53 673.52 1406.36 674.53 1405.69 675.03 1403.04 671.84 1403.7 671.35 1404.86 670.35 1406.19 669.16 1407.53 668.16 1408.68 666.99 1410.01 665.98 1411.17 664.81 1412.5 663.8 1413.99 667.99 1412.66 669.16 1411.33 670.17"/><polygon class="cls-7" points="1422.62 653.92 1423.95 652.74 1425.12 651.4 1426.44 650.07 1427.1 649.22 1429.43 652.92 1428.1 654.25 1426.93 655.59 1425.61 656.93 1424.28 658.27 1422.96 659.45 1421.62 660.79 1421.29 661.12 1418.47 658.11 1418.81 657.77 1420.13 656.6 1421.29 655.26 1422.62 653.92"/><polygon class="cls-7" points="1411 503.11 1409.84 503.11 1408.68 502.94 1407.53 502.94 1406.36 502.94 1405.2 502.78 1404.03 502.78 1402.87 502.78 1401.71 502.78 1400.55 502.94 1400.05 502.94 1400.38 498.76 1401.71 498.59 1402.87 498.59 1404.03 498.59 1405.36 498.59 1406.53 498.76 1407.68 498.76 1409.01 498.76 1410.18 498.92 1411.33 498.92 1412.5 499.1 1412.66 499.1 1412.16 503.28 1411 503.11"/><polygon class="cls-7" points="1389.93 503.78 1388.77 504.12 1387.44 504.29 1386.28 504.46 1385.11 504.79 1383.95 504.96 1382.63 505.29 1381.47 505.63 1380.31 505.79 1380.14 505.96 1379.31 501.77 1380.48 501.44 1381.8 501.1 1382.96 500.93 1384.29 500.6 1385.45 500.44 1386.78 500.1 1387.93 499.93 1389.26 499.76 1390.42 499.59 1391.58 499.43 1392.09 503.62 1391.09 503.62 1389.93 503.78"/><polygon class="cls-7" points="1381.12 691.96 1379.8 692.79 1378.64 693.46 1377.32 694.14 1376.15 694.8 1374.83 695.3 1373.67 695.97 1372.34 696.65 1371.17 697.15 1370.18 697.65 1368.52 693.8 1369.35 693.46 1370.68 692.79 1371.84 692.29 1373 691.62 1374.17 690.94 1375.33 690.45 1376.65 689.77 1377.82 689.1 1378.98 688.43 1379.31 688.27 1381.12 691.96"/><polygon class="cls-7" points="1431.58 507.63 1430.59 507.31 1429.43 506.97 1428.42 506.63 1427.43 506.3 1426.44 505.96 1425.28 505.63 1424.28 505.46 1423.12 505.12 1422.12 504.96 1420.96 504.62 1420.29 504.46 1421.96 500.6 1422.96 500.77 1424.12 501.1 1425.28 501.44 1426.44 501.6 1427.6 501.94 1428.6 502.28 1429.75 502.61 1430.75 502.94 1431.91 503.44 1432.91 503.78 1433.4 503.95 1431.91 507.81 1431.58 507.63"/><polygon class="cls-7" points="1396.07 682.41 1394.91 683.24 1393.58 684.08 1392.41 684.92 1391.09 685.75 1389.77 686.59 1388.6 687.43 1386.44 683.91 1387.61 683.07 1388.77 682.41 1390.09 681.56 1391.26 680.73 1392.41 679.89 1393.74 678.88 1394.91 678.05 1396.24 677.04 1396.57 676.87 1398.73 680.56 1397.39 681.4 1396.07 682.41"/><polygon class="cls-7" points="1462.79 532.27 1462.12 531.44 1461.62 530.59 1460.95 529.76 1460.46 528.92 1459.8 528.08 1459.13 527.25 1458.63 526.57 1457.97 525.73 1457.3 524.89 1456.65 524.22 1455.81 523.39 1455.48 523.05 1458.8 520.54 1459.63 521.38 1460.29 522.22 1461.12 523.05 1461.78 523.89 1462.45 524.73 1463.11 525.56 1463.78 526.41 1464.44 527.25 1465.11 528.25 1465.61 529.09 1466.26 530.09 1466.43 530.26 1462.79 532.44 1462.79 532.27"/><polygon class="cls-7" points="1440.71 633.64 1442.7 637.83 1441.38 639.51 1439.88 641.35 1438.38 643.03 1436.89 644.7 1435.9 646.04 1432.75 643.2 1433.9 641.86 1435.4 640.17 1436.73 638.5 1438.06 636.83 1439.55 635.32 1440.71 633.64"/><polygon class="cls-7" points="1475.06 568.46 1474.89 569.8 1474.73 571.14 1474.73 571.99 1470.58 571.31 1470.58 570.64 1470.74 569.47 1470.91 568.29 1470.91 566.96 1471.09 565.78 1471.09 564.61 1471.09 563.27 1471.09 562.09 1471.09 560.92 1471.09 559.75 1471.09 559.24 1475.23 559.58 1475.23 560.92 1475.23 562.09 1475.23 563.43 1475.23 564.61 1475.23 565.95 1475.06 567.29 1475.06 568.46"/><polygon class="cls-7" points="1469.91 550.87 1469.74 549.69 1469.59 548.69 1469.26 547.69 1468.92 546.51 1468.76 545.51 1468.42 544.5 1468.09 543.5 1467.76 542.49 1467.26 541.49 1466.93 540.48 1466.6 539.64 1470.74 538.97 1471.25 539.97 1471.58 541.15 1471.91 542.15 1472.24 543.33 1472.57 544.33 1472.9 545.51 1473.24 546.51 1473.57 547.69 1473.73 548.86 1474.07 550.03 1474.07 550.36 1470.09 551.2 1469.91 550.87"/><polygon class="cls-7" points="1454.82 621.41 1453.65 623.09 1452.66 624.59 1451.5 626.27 1450.34 627.95 1449.17 629.62 1449.01 629.62 1445.86 627.11 1447.02 625.43 1448.18 623.93 1449.17 622.25 1450.34 620.74 1451.33 619.07 1452.33 617.55 1452.82 616.89 1455.81 619.74 1454.82 621.41"/><polygon class="cls-7" points="1449.01 517.35 1448.18 516.68 1447.35 516.02 1446.51 515.51 1445.69 514.84 1444.86 514.34 1443.86 513.67 1443.03 513.17 1442.21 512.67 1441.21 512.16 1440.21 511.66 1439.39 511.15 1439.21 511.15 1441.21 507.47 1442.21 507.97 1443.2 508.47 1444.19 508.98 1445.19 509.64 1446.02 510.15 1447.02 510.82 1448.01 511.33 1448.84 511.99 1449.84 512.67 1450.67 513.34 1451.5 514.01 1451.99 514.34 1449.51 517.69 1449.01 517.35"/><polygon class="cls-7" points="1315.09 703.85 1316.08 703.85 1317.25 704.02 1318.24 704.02 1319.23 704.18 1320.23 704.18 1321.22 704.18 1320.07 708.37 1318.9 708.37 1317.9 708.21 1316.74 708.21 1315.75 708.04 1314.59 707.87 1313.59 707.87 1312.59 707.71 1311.44 707.54 1310.44 707.37 1309.44 707.21 1308.45 707.03 1309.11 702.85 1310.11 703.01 1311.1 703.18 1312.1 703.35 1313.09 703.51 1314.09 703.68 1315.09 703.85"/><polygon class="cls-7" points="1311.6 564.61 1310.77 566.28 1310.11 567.79 1309.28 569.47 1308.61 570.97 1307.78 572.64 1307.62 573.15 1303.97 570.97 1304.8 569.3 1305.46 567.62 1306.28 565.95 1307.12 564.44 1307.95 562.76 1308.61 561.25 1309.44 559.92 1313.09 561.93 1312.43 563.1 1311.6 564.61"/><polygon class="cls-7" points="1315.59 549.36 1316.58 548.02 1317.41 546.51 1318.41 545.17 1319.4 544 1320.4 542.65 1320.72 541.99 1324.05 544.66 1323.72 545.17 1322.72 546.34 1321.73 547.69 1320.9 549.02 1320.07 550.36 1319.07 551.7 1318.24 553.04 1317.41 554.39 1317.07 554.72 1313.76 552.21 1314.75 550.7 1315.59 549.36"/><polygon class="cls-7" points="1283.06 460.72 1282.56 461.56 1281.9 462.23 1281.4 463.07 1280.9 463.9 1280.24 464.57 1279.74 465.41 1279.08 466.25 1278.58 466.92 1278.08 467.76 1277.41 468.6 1276.92 469.44 1276.59 469.77 1273.42 466.92 1274.1 466.25 1274.59 465.41 1275.26 464.57 1275.76 463.74 1276.25 462.89 1276.92 462.23 1277.41 461.39 1278.08 460.56 1278.58 459.72 1279.24 459.05 1279.74 458.21 1280.4 457.37 1280.57 457.2 1283.89 459.72 1283.72 459.88 1283.06 460.72"/><polygon class="cls-7" points="1309.61 429.89 1308.79 430.56 1308.11 431.23 1307.46 431.9 1306.79 432.58 1306.13 433.24 1305.46 434.08 1304.8 434.75 1304.13 435.42 1303.64 436.09 1302.98 436.93 1302.31 437.43 1299.83 434.08 1300.48 433.24 1301.15 432.58 1301.8 431.9 1302.47 431.06 1303.14 430.39 1303.8 429.72 1304.46 429.06 1305.29 428.22 1305.96 427.55 1306.62 426.87 1307.28 426.2 1307.95 425.53 1307.95 425.36 1310.94 428.38 1310.28 429.06 1309.61 429.89"/><polygon class="cls-7" points="1295.84 444.81 1295.17 445.64 1294.51 446.31 1294.01 446.98 1293.35 447.81 1292.68 448.49 1292.02 449.33 1291.52 450 1290.86 450.83 1290.19 451.5 1289.69 452.34 1289.03 453.02 1288.87 453.18 1285.88 450.5 1286.37 449.66 1287.04 448.82 1287.7 448.15 1288.21 447.32 1288.87 446.65 1289.53 445.81 1290.19 445.14 1290.86 444.3 1291.35 443.63 1292.02 442.79 1292.68 442.12 1293.35 441.28 1293.67 440.95 1296.83 443.63 1296.5 444.13 1295.84 444.81"/><polygon class="cls-7" points="1300.48 579.69 1300.65 579.19 1304.63 580.69 1304.46 581.2 1303.8 582.87 1303.14 584.72 1302.63 586.56 1301.97 588.4 1301.48 590.25 1300.81 592.09 1300.65 592.59 1296.83 590.91 1297.5 588.9 1297.99 587.06 1298.65 585.22 1299.32 583.38 1299.83 581.53 1300.48 579.69"/><polygon class="cls-7" points="1365.54 506.46 1366.86 505.96 1368.02 505.46 1369.19 504.96 1370.52 504.46 1371.01 504.46 1372.34 508.31 1371.84 508.47 1370.68 508.98 1369.52 509.31 1368.36 509.82 1367.19 510.31 1366.03 510.82 1364.87 511.33 1363.54 511.99 1362.38 512.5 1361.22 513.17 1361.06 513.17 1359.39 509.31 1360.55 508.82 1361.89 508.14 1363.04 507.63 1364.37 506.97 1365.54 506.46"/><polygon class="cls-7" points="1357.07 389.68 1356.41 390.18 1355.58 390.85 1354.75 391.35 1354.08 391.85 1353.26 392.35 1352.59 392.86 1351.76 393.36 1351.1 393.87 1350.27 394.53 1349.6 395.03 1348.77 395.54 1348.44 395.87 1346.45 392.19 1347.12 391.68 1347.94 391.01 1348.61 390.51 1349.44 390.01 1350.27 389.5 1350.93 388.84 1351.76 388.34 1352.42 387.83 1353.26 387.32 1354.08 386.82 1354.75 386.32 1355.58 385.82 1356.24 385.32 1358.56 388.84 1357.9 389.17 1357.07 389.68"/><polygon class="cls-7" points="1360.88 696.98 1361.38 701.34 1360.22 701.84 1359.06 702.17 1357.9 702.68 1356.58 703.01 1355.4 703.51 1354.25 703.85 1353.09 704.18 1351.93 704.53 1350.77 704.86 1350.43 705.02 1349.27 700.84 1349.6 700.84 1350.77 700.5 1351.93 700.17 1353.09 699.83 1354.25 699.5 1355.4 699.16 1356.58 698.66 1357.57 698.33 1358.73 697.82 1360.06 697.48 1360.88 696.98"/><polygon class="cls-7" points="1324.71 415.14 1324.05 415.81 1323.38 416.48 1322.55 417.15 1321.89 417.66 1321.22 418.33 1320.56 419 1319.89 419.67 1319.07 420.34 1318.41 421.01 1317.74 421.68 1317.07 422.35 1316.74 422.52 1314.25 419.34 1314.92 418.66 1315.59 417.99 1316.24 417.32 1317.07 416.66 1317.74 415.98 1318.41 415.31 1319.07 414.64 1319.89 413.97 1320.56 413.3 1321.22 412.63 1322.05 411.96 1322.72 411.46 1323.22 410.96 1325.87 414.14 1325.54 414.47 1324.71 415.14"/><polygon class="cls-7" points="1374.66 378.79 1373.83 379.29 1373 379.79 1372.34 380.13 1371.51 380.63 1370.84 381.13 1370.02 381.47 1369.19 381.97 1368.52 382.48 1367.69 382.97 1367.03 383.31 1366.19 383.81 1365.54 384.31 1364.04 380.29 1364.87 379.79 1365.54 379.29 1366.37 378.79 1367.19 378.45 1367.86 377.95 1368.69 377.45 1369.52 376.94 1370.18 376.6 1371.01 376.11 1371.84 375.6 1372.5 375.26 1373.33 374.76 1374.17 374.26 1376.15 377.95 1375.33 378.45 1374.66 378.79"/><polygon class="cls-7" points="1331.68 529.59 1332.68 528.58 1333.84 527.41 1334.83 526.41 1335 526.41 1337.82 529.42 1337.66 529.59 1336.66 530.59 1335.66 531.6 1334.51 532.6 1333.5 533.61 1332.51 534.62 1331.51 535.78 1330.52 536.79 1329.52 537.97 1329.19 538.3 1326.37 535.28 1327.36 534.11 1328.36 532.94 1329.52 531.77 1330.52 530.59 1331.68 529.59"/><polygon class="cls-7" points="1340.64 401.74 1339.98 402.24 1339.14 402.91 1338.49 403.42 1337.66 404.08 1336.99 404.75 1336.32 405.26 1335.5 405.92 1334.83 406.43 1334.01 407.1 1333.34 407.6 1332.68 408.27 1332.18 408.61 1330.02 405.09 1330.68 404.42 1331.51 403.92 1332.18 403.24 1332.84 402.58 1333.67 402.08 1334.34 401.4 1335.16 400.73 1335.83 400.23 1336.66 399.56 1337.33 399.06 1338.15 398.39 1338.81 397.89 1339.32 397.55 1341.8 400.9 1341.47 401.23 1340.64 401.74"/><path class="cls-8" d="M2934.62,369c-5.23,2.38-10.45,5-15.67,7.58,8.45-10.66,16.72-27.73,22.34-47.51,5.77-20.62,7.49-40,5.41-53.7-8.86,10.68-17.53,28.17-23.3,48.8-5.59,20.19-7.31,39.34-5.66,52.89-6.61,3.51-13.21,7.23-19.81,10.94,4.65-18.7,5.06-45.83,0-75.31-4.89-29.28-14.52-54.76-25.23-70.86-4.86,18.7-5.25,46-.16,75.31,5.12,29.48,14.52,54.77,25.24,71.08-10.39,6-21,12.45-31.29,19.49.19-20.7-5.44-48.49-16.92-77.17-11.78-30.31-27.59-55.41-42.76-70-1,21.16,4.72,50.19,16.71,80.49,11.49,28.89,26.42,53,41,68-10.33,7.05-20.43,14.29-30.51,22.15-2-16.44-9.54-37.7-21.83-59.29-12.74-22.39-27.91-40.29-41.35-50.23,1.65,16.66,9.21,38.95,22,61.34,12.49,21.58,27,38.91,40.24,49.05-6.91,5.4-13.81,11-20.49,16.78-39.31,33.85-75.94,74.36-105.63,120l3.23,2.08a478.52,478.52,0,0,1,29.18-40.47c3.6,8.06,10.62,18,20.08,27.12,10.12,9.93,20.9,17.13,29.59,20.53-3.42-8.68-10.7-19.41-20.82-29.34-9.47-9.36-19.61-16.19-27.89-19.61,9.22-11.53,18.69-22.65,28.59-33.19,3.39,8.07,10.21,18,19.67,27.35,9.68,9.33,20,16.15,28.08,19.38-3.2-8.29-10.23-18.41-19.7-27.76s-19.6-16.18-27.65-19.2c9.89-10.74,20.05-20.67,30.42-30.41,5,11.27,14.76,25,27.76,37.82,13.85,13.43,28.31,23.3,40.17,27.75-4.65-11.72-14.64-26.21-28.49-39.65-13-12.84-26.81-22.35-38.06-27,4.5-4.21,9.21-8.43,13.93-12.44,6.48-5.57,13-10.93,19.3-15.87,6.11,15.36,18.83,34,36.27,51.78,18.08,18.35,37.31,31.65,52.8,37.95-5.73-15.79-18.92-35.25-36.8-53.61-17.42-17.56-35.8-30.71-50.89-37.24,9.88-7.63,19.77-15.06,29.91-21.89,7.07,17.57,21,38.65,40.2,58.78,20.56,21.5,42.42,37.34,60.25,44.73-6.49-18.22-21.12-40.92-41.68-62.42-18.8-19.94-39.15-34.84-56.19-42.9,10.53-7.06,20.89-13.49,31.28-19.5,7.06,14.05,20.52,31,38.42,46.47,18.59,16.24,37.9,27.69,53.29,32.33-6.68-14.48-20.59-32.25-39.15-48.29-17.71-15.47-35.95-26.35-50.95-31.43,6.58-3.92,13.19-7.44,19.61-10.72,7.3,7.83,19.2,16.21,33.68,23,15.11,6.94,30,10.79,40.81,10.95-7.13-8.25-19.46-17-34.58-24.15-13.84-6.4-27.52-10.11-37.9-10.72,4.22-2.12,8.63-4.25,12.87-6.16,15.44-1.16,35.4-6.31,55.94-15.64,22.53-10.27,41-23.19,51.85-35-16.12.15-38.15,5.43-60.69,15.72-19.93,9.07-36.83,20.24-48,31.06ZM2713.85,497.1c-7-12.21-11.23-24.56-12.21-33.81,7.58,5.54,15.84,15.38,23,27.76,7,12.4,11.22,24.55,12.2,33.81-7.57-5.33-15.84-15.38-23-27.76Zm24.55-38.34c-8.57-15-13.63-30-14.72-41.09,8.89,6.69,19.14,18.69,27.7,33.47,8.36,15,13.62,30,14.71,41.1-9.09-6.68-19.13-18.69-27.69-33.48Zm28.09-34.6c-9.51-16.8-15.28-33.41-16.47-46,10,7.47,21.35,20.84,31.06,37.63,9.51,16.79,15.28,33.4,16.47,45.95-10-7.46-21.55-20.82-31.06-37.61Z"/><path class="cls-4" d="M1991.65,717.75a71.6,71.6,0,0,0-27.42-8.81c-10.77,0-20.57-4.9-28.74-14.36,9.15,6.52,16.66,9.46,22.2,9.13,12.74-.65,24.82,1.31,35.93,6.87q3.92.46,7.83-3c-10.78-12.08-23.18-18.94-38.2-21.21-16.33-6.21-25.15-22.54-21.22-39.83-.66,15.34,8.48,28.4,22.53,33.95,14.35,1,27.75,8.15,40.81,22.2,2.28-3.6,7.83-9.14,17-17-6.84-21.22-14.35-38.2-22.2-50.93-11.75-18.94-16-45.39-12.72-79,1,35.25,5.54,58.77,13.71,70.19,8.16,9.14,17,27.43,27.09,54.2,1-2.29,8.83-8.49,23.19-18.28-.33-6.86-2.94-19.59-8.16-38.53-4.9-13.06-5.89-29.06-2.94-48.32,2.28,38.53,10.44,64,24.81,76.39q51.91-38.19,153.77-69.53c-77.37,33.3-124.38,58.76-140.38,77,24.81,6.85,43.42,15.34,56.15,25.14,10.77,8.15,31,16,60.72,24.15-23.18-2.93-44.07-9.14-63-18.93a248.14,248.14,0,0,0-59.42-23.83c-5.55,1.31-13.71,9.14-24.48,22.52,20.24,12.41,36.24,25.15,48.31,38.53,5.56,9.47,19.93,23.5,43.76,42.11-24.49-12.4-40.17-21.86-47-27.74-16-14.7-26.12-24.49-30.36-29.71-13.06-8.17-20.24-8.81-21.87-2a16.26,16.26,0,0,0,6.85,12.75c.33-1,1-1.64,1.32-2.62a13,13,0,0,1,12.07-3.59,10.47,10.47,0,0,1,7.83,8.48c3.27,9.15,8.81,18,16.33,26.78a8.38,8.38,0,0,1,0,10.77c-2.61,3.26-7.52,4.58-11.11,2.61-14-6.53-23.5-15.35-28.07-26.44a1.18,1.18,0,0,1-.34-1c-4.23-9.47-9.12-14.37-15.32-15-1.32,19.59,6.51,43.42,22.85,72.15-17-13.39-26.78-27.11-30-41.47a83.86,83.86,0,0,0-5.56-23.19c-1,12.1-3.92,24.17-8.17,36.91-6.2,12.4-9.14,30.35-8.81,53.54-6.21-18.61-6.21-36.9-.33-54.52a160.87,160.87,0,0,0,10.12-39.83c-1.3-3-5.87.31-14.37,9.79q-2.44,18.11-15.66,39.17c-7.83,12.41-7.19,27.1,1.31,37.54,14.68,11.43,24.15,22.2,27.74,31.68A35.65,35.65,0,0,0,2030.5,866a41.74,41.74,0,0,0,32,0c-14.7-4.56-25.8-15.68-29.71-30.36-4.25-14.37-.66-30.37,9.14-43.11,12.08,6.87,18,23.19,17.62,48,10.14,23.18,29.39,31.35,57.79,23.84-18.93-17.3-37.53-43.1-55.49-77.71-1.64-2.6-.65-5.87,2-7.83a6.39,6.39,0,0,1,8.16,0c13.06,37.87,32.66,63.34,58.77,77.05,25.79-2,45.05-10.13,57.46-24.49-48.65-10.12-78.68-32-89.46-65.3a7.66,7.66,0,0,1,6.21-6.2,7,7,0,0,1,7.18,3.59c13.71,27.43,41.79,45.71,84.56,55.18,21.23-2.94,43.1-21.22,65.94-54.84-77.69-4.91-127.32-19.27-149.19-43.76a6.61,6.61,0,0,1-5.88-5.22,7.64,7.64,0,0,1,2.61-7.52,8.41,8.41,0,0,1,8.16-1.63q81.79,42.62,152.81,37.22c14.68-11.09,22.18-38.52,22.84-81.29-30.69,16.32-70.84,23.5-120.47,21.22-11.75-2.28-15.67-7.52-11.42-15,2.27-2.95,8.82-4.58,18.92-4.58,59.42,1.63,99.91-9.15,121.78-32.32,2.28-2.93,2.62-7.18.33-9.79-2-2.94-6.2-3.92-9.8-2.63A85.76,85.76,0,0,1,2262,628c-13.38,2.61-20.23-1.32-20.23-11.76,2.27-10.44,10.44-15.68,24.15-16a361.57,361.57,0,0,0,37.54,0c11.11-21.22,3.6-45.71-23.18-73.14-34.61,6.54-56.48-2-65-25.46-26.12,33.3-52.56,64.32-79.66,93-2.93,2.94-7.84,3.26-10.78.65-2.93-2.28-3.27-6.86-.32-10.11,16-26.13,44.72-54.85,86.52-86.2-19.92-16-44.73-21.22-74.76-15-22.2,28.73-40.17,67.91-53.55,116.88a18.57,18.57,0,0,1-24.48,4.91c-7.52-5.24-9.15-15.69-3.27-23.52,8.49-20.57,28.08-51.9,58.44-93.37-40.49-2-74.76,9.47-102.18,34.61,6.52,21.54,11.08,54.18,13.7,98.59q0,20.58-6.85,12.74c-20.58-41.79-24.82-79.66-13.39-113.62-2.94,0-7.84,1-14.37,2.29-28.41,14.36-35.9,45.06-22.2,92.07,1,7.83,5.89,15.67,14.7,23.83,7.18,7.83,9.14,16.32,6.53,25.46-12.41,12.41-23.51,7.83-33.64-14.37q-7.83-14.68-5.87-79.32c-26.11,16.64-38.85,44.72-38.2,84.55-.32,17,3.27,37.22,11.76,60.73,4.24,13,17,22.2,31.66,22.53a41.32,41.32,0,0,0,36.57-21.23Zm150.84-61.37c-8.17-.66-14-6.86-14-14.7a17.69,17.69,0,0,1,13.72-17c18.94-2.28,34.28-1.3,45.7,3.28,11.11,4.24,17,8.48,2.62,17.95-10.12,7.17-26.13,10.45-48,10.45Z"/><g class="cls-9"><path class="cls-10" d="M1417.13,1992.38h1.27C2213.07,933,410,796.26,903.47.33h18.24V0H220.79V2000.14H1417.13Z"/><path class="cls-11" d="M1414.77,1992.38H1416C2210.72,933,407.62,796.26,901.11.33h18.24V0H218.44V2000.14H1414.77Z"/><path class="cls-12" d="M1412.41,1992.38h1.28C2208.36,933,405.26,796.26,898.76.33H917V0H216.08V2000.14H1412.41Z"/><path class="cls-13" d="M1410.06,1992.38h1.27C2206,933,402.9,796.26,896.4.33h18.24V0H213.73V2000.14H1410.06Z"/><path class="cls-14" d="M1407.7,1992.38H1409C2203.65,933,400.55,796.26,894.05.33h18.23V0H211.37V2000.14H1407.7Z"/><path class="cls-15" d="M1405.35,1992.38h1.27C2201.3,933,398.19,796.26,891.69.33h18.24V0H209V2000.14H1405.35Z"/><path class="cls-16" d="M1403,1992.38h1.28C2198.94,933,395.84,796.26,889.33.33h18.24V0H206.66V2000.14H1403Z"/><path class="cls-17" d="M1400.64,1992.38h1.27C2196.58,933,393.48,796.26,887,.33h18.24V0H204.3V2000.14H1400.64Z"/><path class="cls-18" d="M1398.28,1992.38h1.27C2194.23,933,391.13,796.26,884.62.33h18.24V0H202V2000.14H1398.28Z"/><path class="cls-19" d="M1395.92,1992.38h1.28C2191.87,933,388.77,796.26,882.27.33h18.24V0H199.59V2000.14H1395.92Z"/><path class="cls-20" d="M1393.57,1992.38h1.27C2189.52,933,386.42,796.26,879.91.33h18.24V0H197.24V2000.14H1393.57Z"/><path class="cls-21" d="M1391.21,1992.38h1.28C2187.16,933,384.06,796.26,877.56.33h18.23V0H194.88V2000.14H1391.21Z"/><path class="cls-22" d="M1388.86,1992.38h1.27C2184.81,933,381.7,796.26,875.2.33h18.24V0H192.52V2000.14H1388.86Z"/><path class="cls-23" d="M1386.5,1992.38h1.28C2182.45,933,379.35,796.26,872.85.33h18.23V0H190.17V2000.14H1386.5Z"/><path class="cls-24" d="M1384.15,1992.38h1.27C2180.1,933,377,796.26,870.49.33h18.24V0H187.81V2000.14H1384.15Z"/><path class="cls-25" d="M1381.79,1992.38h1.28C2177.74,933,374.64,796.26,868.13.33h18.24V0H185.46V2000.14H1381.79Z"/><path class="cls-26" d="M1379.44,1992.38h1.27C2175.38,933,372.28,796.26,865.78.33H884V0H183.1V2000.14H1379.44Z"/><path class="cls-27" d="M1377.08,1992.38h1.27C2173,933,369.93,796.26,863.42.33h18.24V0H180.75V2000.14H1377.08Z"/><path class="cls-28" d="M1374.72,1992.38H1376C2170.67,933,367.57,796.26,861.07.33h18.24V0H178.39V2000.14H1374.72Z"/><path class="cls-29" d="M1372.37,1992.38h1.27C2168.32,933,365.22,796.26,858.71.33H877V0H176V2000.14H1372.37Z"/><path class="cls-30" d="M1370,1992.38h1.28C2166,933,362.86,796.26,856.36.33h18.23V0H173.68V2000.14H1370Z"/><path class="cls-31" d="M1367.66,1992.38h1.27C2163.61,933,360.5,796.26,854,.33h18.24V0H171.32V2000.14H1367.66Z"/><path class="cls-32" d="M1365.3,1992.38h1.28C2161.25,933,358.15,796.26,851.64.33h18.24V0H169V2000.14H1365.3Z"/><path class="cls-33" d="M1363,1992.38h1.27C2158.89,933,355.79,796.26,849.29.33h18.24V0H166.61V2000.14H1363Z"/><path class="cls-34" d="M1360.59,1992.38h1.28C2156.54,933,353.44,796.26,846.93.33h18.24V0H164.26V2000.14H1360.59Z"/><path class="cls-35" d="M1358.24,1992.38h1.27C2154.18,933,351.08,796.26,844.58.33h18.24V0H161.9V2000.14H1358.24Z"/><path class="cls-36" d="M1355.88,1992.38h1.27C2151.83,933,348.73,796.26,842.22.33h18.24V0H159.55V2000.14H1355.88Z"/><path class="cls-37" d="M1353.52,1992.38h1.28C2149.47,933,346.37,796.26,839.87.33h18.24V0H157.19V2000.14H1353.52Z"/><path class="cls-38" d="M1351.17,1992.38h1.27C2147.12,933,344,796.26,837.51.33h18.24V0H154.84V2000.14H1351.17Z"/><path class="cls-39" d="M1348.81,1992.38h1.28C2144.76,933,341.66,796.26,835.16.33h18.23V0H152.48V2000.14H1348.81Z"/><path class="cls-40" d="M1346.46,1992.38h1.27C2142.41,933,339.3,796.26,832.8.33H851V0H150.12V2000.14H1346.46Z"/><path class="cls-41" d="M1344.1,1992.38h1.28C2140.05,933,337,796.26,830.44.33h18.24V0H147.77V2000.14H1344.1Z"/><path class="cls-42" d="M1341.75,1992.38H1343C2137.69,933,334.59,796.26,828.09.33h18.24V0H145.41V2000.14H1341.75Z"/><path class="cls-43" d="M1339.39,1992.38h1.28C2135.34,933,332.24,796.26,825.73.33H844V0H143.06V2000.14H1339.39Z"/><path class="cls-44" d="M1337,1992.38h1.27C2133,933,329.88,796.26,823.38.33h18.24V0H140.7V2000.14H1337Z"/><path class="cls-45" d="M1334.68,1992.38H1336C2130.63,933,327.53,796.26,821,.33h18.24V0H138.35V2000.14H1334.68Z"/><path class="cls-46" d="M1332.32,1992.38h1.28C2128.27,933,325.17,796.26,818.67.33h18.24V0H136V2000.14H1332.32Z"/><path class="cls-47" d="M1330,1992.38h1.27C2125.92,933,322.82,796.26,816.31.33h18.24V0H133.64V2000.14H1330Z"/><path class="cls-48" d="M1327.61,1992.38h1.28C2123.56,933,320.46,796.26,814,.33h18.23V0H131.28V2000.14H1327.61Z"/><path class="cls-49" d="M1325.26,1992.38h1.27C2121.21,933,318.1,796.26,811.6.33h18.24V0H128.92V2000.14H1325.26Z"/><path class="cls-50" d="M1322.9,1992.38h1.28C2118.85,933,315.75,796.26,809.24.33h18.24V0H126.57V2000.14H1322.9Z"/><path class="cls-51" d="M1320.55,1992.38h1.27C2116.49,933,313.39,796.26,806.89.33h18.24V0H124.21V2000.14H1320.55Z"/><path class="cls-52" d="M1318.19,1992.38h1.27C2114.14,933,311,796.26,804.53.33h18.24V0H121.86V2000.14H1318.19Z"/><path class="cls-53" d="M1315.83,1992.38h1.28C2111.78,933,308.68,796.26,802.18.33h18.24V0H119.5V2000.14H1315.83Z"/><path class="cls-54" d="M1313.48,1992.38h1.27C2109.43,933,306.33,796.26,799.82.33h18.24V0H117.15V2000.14H1313.48Z"/><path class="cls-55" d="M1311.12,1992.38h1.28C2107.07,933,304,796.26,797.47.33H815.7V0H114.79V2000.14H1311.12Z"/><path class="cls-56" d="M1308.77,1992.38H1310C2104.72,933,301.61,796.26,795.11.33h18.24V0H112.44V2000.14H1308.77Z"/><path class="cls-57" d="M1306.41,1992.38h1.28C2102.36,933,299.26,796.26,792.76.33H811V0H110.08V2000.14H1306.41Z"/><path class="cls-58" d="M1304.06,1992.38h1.27C2100,933,296.9,796.26,790.4.33h18.24V0H107.72V2000.14H1304.06Z"/><path class="cls-59" d="M1301.7,1992.38H1303C2097.65,933,294.55,796.26,788,.33h18.24V0H105.37V2000.14H1301.7Z"/><path class="cls-60" d="M1299.35,1992.38h1.27C2095.29,933,292.19,796.26,785.69.33h18.24V0H103V2000.14H1299.35Z"/><path class="cls-61" d="M1297,1992.38h1.27C2092.94,933,289.84,796.26,783.33.33h18.24V0H100.66V2000.14H1297Z"/></g><path class="cls-62" d="M1297,1992.38h1.27C2092.94,933,289.84,796.26,783.33.33h18.24V0H.15V2000.14H1297Z"/></g><g id="element"><path class="cls-63" d="M2323.23,1558.79c379.85,0,687.72,26.49,687.72,59.33s-307.87,59.47-687.72,59.47-687.72-26.63-687.72-59.47,308-59.33,687.72-59.33Z"/><path class="cls-64" d="M2910.91,850.83c-40.49,54.6-104.82,80.56-112.61,162-4.77,54.37,15.82,139.13,58.95,176.19,5.6,4.51,11.28,8.55,16.63,12.06a411,411,0,0,0-15.5,45.48,662,662,0,0,0-18,72.15l22.5,4.41c4.63-23.4,10.22-47.08,17.09-70,4.75-15.4,9.84-30.26,15.4-45a51.44,51.44,0,0,0,9.55-.75,250.56,250.56,0,0,0,44.37-12c16.95-6.65,35.36-15.8,49-24.58,103.48-65.82,96.74-114.71,80.86-212.53-11.32-73.36,34.12-105.29,58.82-152,30.52-56.29-8.47-170.87-97.1-149.73-52.94,12.46-91.5,53.87-100,108.35-3.72,23.62-16.38,66.89-29.93,86Zm153.28-133a3096.52,3096.52,0,0,0-158.07,382.18c31.15-132.69,93-268.58,158.07-382.18Z"/><path class="cls-65" d="M2983.62,951.11c13.3-14.23,19.73-26.16,25.7-45,13.32-43.13,49.55-72.51,94.07-76.63,9.62-.46,20.63-.46,29.35,1.83,47.28,12.85,57.83,97.74,32.13,132.16-25.7,34.88-57.36,34-56.43,94.53,1.38,82.13.91,123-90.86,164.27-12.38,5.51-28.45,10.55-43.13,14.23a182.52,182.52,0,0,1-37.63,4.12h-1.37c-6.43,17-12.86,34.42-17.91,51.4-7.33,22.94-13.29,46.34-18.34,69.75l-22.49-4.59c5.05-24.32,11.47-48.18,18.83-72,5.48-17.45,11.45-34.88,18.34-51.86a167.07,167.07,0,0,1-13.3-12.85c-31.2-35.33-37.63-106.91-27.54-150.5,15.59-65.62,71.13-78.93,110.58-118.85Zm132.15-69.29c-68.83,92.69-137.19,205.11-178,317.53a2661.45,2661.45,0,0,1,178-317.53Z"/><path class="cls-66" d="M2875.79,1586.64h62.86q17.22-8.94,53.69-39.92c70.22-73.42,70.22-146.38,0-219.8-4.14-5.5-6-11-4.58-16.52a112.5,112.5,0,0,0,25.23-11.47c8.26-21.11-252.84-21.11-244.12,0a104.17,104.17,0,0,0,25.24,11.47c.91,5.51-.45,11-4.57,16.52-70.67,73.42-70.67,146.38,0,219.8,23.85,20.64,41.73,34,53.21,39.92Z"/><path class="cls-64" d="M1772.84,813.89c-13.56-19.13-26.22-62.4-29.94-86-8.55-54.49-47.1-95.89-100-108.36-88.64-21.14-127.63,93.44-97.11,149.74,24.7,46.76,70.14,78.69,58.82,152-15.87,97.82-22.62,146.71,80.87,212.53,13.65,8.77,32.07,17.92,49,24.58a250.56,250.56,0,0,0,44.37,12,50.52,50.52,0,0,0,9.56.74c5.56,14.76,10.64,29.62,15.4,45,6.87,22.93,12.45,46.6,17.08,70l22.5-4.41a660.45,660.45,0,0,0-18-72.16,411.74,411.74,0,0,0-15.5-45.48c5.35-3.5,11-7.55,16.64-12.06,43.13-37.06,63.72-121.82,59-176.19-7.8-81.42-72.12-107.37-112.61-162Zm-153.29-133c65,113.6,126.92,249.49,158.08,382.19a3095,3095,0,0,0-158.08-382.19Z"/><path class="cls-67" d="M1700.12,914.16c39.45,39.93,95,53.23,110.58,118.85,10.1,43.59,3.67,115.17-27.54,150.51a168.71,168.71,0,0,1-13.29,12.85c6.88,17,12.85,34.41,18.34,51.85,7.35,23.86,13.77,47.72,18.82,72l-22.49,4.6c-5-23.41-11-46.81-18.34-69.75-5-17-11.48-34.42-17.91-51.4h-1.36a182.65,182.65,0,0,1-37.64-4.13c-14.67-3.67-30.75-8.72-43.13-14.23-91.76-41.29-92.23-82.13-90.85-164.27.92-60.57-30.74-59.65-56.44-94.53-25.69-34.41-15.14-119.3,32.13-132.15,8.72-2.3,19.73-2.3,29.35-1.83,44.52,4.12,80.76,33.49,94.07,76.63,6,18.81,12.4,30.74,25.7,45ZM1568,844.88a2659.12,2659.12,0,0,1,178,317.53c-40.83-112.42-109.2-224.84-178-317.53Z"/><path class="cls-2" d="M1736.68,827.45h980.16a40.36,40.36,0,0,1,29,12.15,41.86,41.86,0,0,1,12,29.33v566a42,42,0,0,1-12,29.49,41,41,0,0,1-29,12.14H2336.13v57.57h50.62c16.87,0,30.75,11.35,30.75,25.07v14.83H2036v-14.83c0-13.72,13.88-25.07,30.75-25.07h50.63v-57.57H1736.68a41,41,0,0,1-29-12.14,42,42,0,0,1-12-29.49v-566a41.89,41.89,0,0,1,12-29.33,40.36,40.36,0,0,1,29-12.15Zm980.16,34.38H1736.68a7,7,0,0,0-5,2,7.62,7.62,0,0,0-2.05,5v566a7,7,0,0,0,2.05,5,6.58,6.58,0,0,0,5,2.21h980.16a6.57,6.57,0,0,0,5-2.21,7,7,0,0,0,2-5v-566a7.62,7.62,0,0,0-2-5,7,7,0,0,0-5-2Z"/><path class="cls-68" d="M1725.48,1445.46h1000a7.79,7.79,0,0,0,5.05-2.21,7.43,7.43,0,0,0,2-5.21V860.66a7.29,7.29,0,0,0-2-5,7.08,7.08,0,0,0-5.05-2.21h-1000a7.08,7.08,0,0,0-5,2.21,7.29,7.29,0,0,0-2,5V1438a7.43,7.43,0,0,0,2,5.21,7.79,7.79,0,0,0,5,2.21Z"/><path class="cls-69" d="M2224.37,1091.31a46.71,46.71,0,1,1-6.84,93.16c-25.64-1.71-45-24.21-43.3-50.14a46.83,46.83,0,0,1,50.14-43Zm-44.16-25.07a31.75,31.75,0,0,1-34.18,29.63c-2-.28-3.71-.57-5.41-.85a84.84,84.84,0,0,0-6.26,14.81,29.86,29.86,0,0,1,7.11,6.26,31.72,31.72,0,0,1-3.13,45,28.27,28.27,0,0,1-4.56,3.42,131.73,131.73,0,0,0,6,14.81,35.92,35.92,0,0,1,9.68-.57,32,32,0,0,1,29.63,34.19c-.29,1.71-.57,3.7-.86,5.41a86.07,86.07,0,0,0,14.82,6.27,37.3,37.3,0,0,1,6.27-7.41,32,32,0,0,1,45,3.42,40.19,40.19,0,0,1,3.14,4.28,69.71,69.71,0,0,0,15.1-6,25.8,25.8,0,0,1-.86-9.4c1.42-17.67,16.81-31.06,34.19-29.63a16.69,16.69,0,0,1,5.42.86,100,100,0,0,0,6.55-14.82,30.83,30.83,0,0,1-7.41-6.26,32,32,0,0,1,3.41-45,47.09,47.09,0,0,1,4.28-3.42,67.44,67.44,0,0,0-6-14.82,36,36,0,0,1-9.69.57,31.73,31.73,0,0,1-29.35-34.18,18.19,18.19,0,0,1,.86-5.41,96.94,96.94,0,0,0-14.82-6.27,38.52,38.52,0,0,1-6.27,7.41,32.33,32.33,0,0,1-45.28-3.42,40.19,40.19,0,0,1-3.14-4.28,67.48,67.48,0,0,0-14.81,6,35,35,0,0,1,.56,9.4Z"/><path class="cls-69" d="M2334.91,1008.12a30.26,30.26,0,1,1-39.6,16.24,30.26,30.26,0,0,1,39.6-16.24ZM2313,983.62a20.52,20.52,0,0,1-27.06,11.11c-1.15-.57-2-1.14-3.14-1.71a61.54,61.54,0,0,0-6.83,8,22.64,22.64,0,0,1,3.12,5.13,20.88,20.88,0,0,1-11.4,27.06,16.27,16.27,0,0,1-3.41,1.14c0,3.42.28,6.84.57,10.26a17.14,17.14,0,0,1,6.27,1.7,20.63,20.63,0,0,1,10.82,27.08,8.59,8.59,0,0,1-1.71,3.12,91.58,91.58,0,0,0,8,6.84,15.56,15.56,0,0,1,5.12-3.13,20.78,20.78,0,0,1,27.07,11.39,17.3,17.3,0,0,1,1.15,3.43,63.49,63.49,0,0,0,10.25-.86,23.19,23.19,0,0,1,1.7-6,20.38,20.38,0,0,1,27.06-10.83,14.15,14.15,0,0,1,3.14,1.43,44,44,0,0,0,6.84-7.7,18.6,18.6,0,0,1-3.13-5.13,20.77,20.77,0,0,1,11.4-27.06,16.27,16.27,0,0,1,3.41-1.14c0-3.42-.28-6.84-.57-10.26a21.32,21.32,0,0,1-17.1-28.77c.58-1.14,1.15-2,1.72-3.14a59.9,59.9,0,0,0-8-6.83,22.67,22.67,0,0,1-5.12,3.13,20.78,20.78,0,0,1-27.07-11.4,16.31,16.31,0,0,1-1.15-3.41,62,62,0,0,0-10.25.57,20.73,20.73,0,0,1-1.7,6Z"/><path class="cls-64" d="M1916.7,1362.25h616.78a6.34,6.34,0,0,0,6.27-6.27h0a6.1,6.1,0,0,0-6.27-6H1916.7a5.84,5.84,0,0,0-6,6h0a6.09,6.09,0,0,0,6,6.27Z"/><path class="cls-69" d="M1916.7,1362.25h323.63a6.09,6.09,0,0,0,6-6.27h0a5.85,5.85,0,0,0-6-6H1916.7a5.84,5.84,0,0,0-6,6h0a6.09,6.09,0,0,0,6,6.27Z"/><path class="cls-2" d="M2173.37,1314.1h-2.56v8.54a3.91,3.91,0,0,1-1.13,3.14,3.51,3.51,0,0,1-2.58.86,4.26,4.26,0,0,1-2.84-.86,6.22,6.22,0,0,1-1.14-3.42v-8.26h-2.56v8.54a8.53,8.53,0,0,0,.57,2.85,4.53,4.53,0,0,0,1.14,2,7.39,7.39,0,0,0,2,1.14,6.71,6.71,0,0,0,5.42,0,4.65,4.65,0,0,0,2-1.14,11.91,11.91,0,0,0,1.42-2,10.82,10.82,0,0,0,.28-3.13Zm15.11,4.84a4.75,4.75,0,0,0-.29-2,5.7,5.7,0,0,0-1.14-1.72l-1.7-.85a8.05,8.05,0,0,0-2.57-.28h-5.7v14.81h2.57v-4.84h2.85a5.45,5.45,0,0,0,2.27-.29,13.18,13.18,0,0,0,2-.85,7.66,7.66,0,0,0,1.42-1.71,5.46,5.46,0,0,0,.29-2.28Zm-2.57,0a2.25,2.25,0,0,1-.85,2,3.22,3.22,0,0,1-2.28.85h-3.13v-5.41h3.13a5.28,5.28,0,0,1,2.28.57,2.61,2.61,0,0,1,.85,2Zm18.81,2.57a12.37,12.37,0,0,0-.57-3.14,4.45,4.45,0,0,0-1.71-2.28,6.25,6.25,0,0,0-2.28-1.42,7.23,7.23,0,0,0-3.42-.57h-5.41v14.81h5.41a14.06,14.06,0,0,0,3.42-.57,9.91,9.91,0,0,0,4-4,10.24,10.24,0,0,0,.57-2.84Zm-2.86,0a5.07,5.07,0,0,1-.27,2,6.12,6.12,0,0,1-1.15,1.71,2.44,2.44,0,0,1-1.42.85,6.61,6.61,0,0,1-2.28.58h-2.84v-10.26h2.84a6.38,6.38,0,0,1,2.28.28,2.88,2.88,0,0,1,1.42,1.14,6.12,6.12,0,0,1,1.15,1.71,4.45,4.45,0,0,1,.27,2Zm12.83-7.7h-2.57l-6.55,15.1h2.85l1.42-3.7H2217l1.42,3.7h2.84Zm1.13,9.12h-5.12l2.57-6Zm12.26-6.55h4.83v-2.28h-12.24v2.28h4.85v12.53h2.56Zm7.69-2.28v14.81h2.56V1314.1Zm17.09,10.25-8-10.25h-2.57v14.81h2.57v-10.54l8.25,10.54h2.28V1314.1h-2.56Zm19.66,2.57v-6.27h-6.27v2.28h3.7v2.85a10,10,0,0,1-1.71.86c-.57,0-1.13.28-2,.28a5.17,5.17,0,0,1-2-.57,5.93,5.93,0,0,1-1.71-1.14,4.72,4.72,0,0,1-.86-1.71,4.91,4.91,0,0,1-.28-2,4.31,4.31,0,0,1,.28-2,4.72,4.72,0,0,1,.86-1.71,5.93,5.93,0,0,1,1.71-1.14,4.14,4.14,0,0,1,2-.57,1.72,1.72,0,0,1,1.15.29,1.74,1.74,0,0,1,1.13.28c.29,0,.57.29.85.29.3.28.57.57.86.85l1.71-2c-.29-.28-.85-.57-1.14-.85-.57-.28-.86-.57-1.43-.57-.28-.28-.85-.28-1.42-.57h-1.71a5.68,5.68,0,0,0-3.14.57,6.79,6.79,0,0,0-2.56,1.71,6.32,6.32,0,0,0-1.43,2.28,9.06,9.06,0,0,0,0,6.27,6.32,6.32,0,0,0,1.43,2.28,13.92,13.92,0,0,0,2.56,1.71,10.52,10.52,0,0,0,3.14.57,4.75,4.75,0,0,0,2-.29c.58,0,1.14-.28,1.71-.28a6.38,6.38,0,0,1,1.43-.86c.28-.28.86-.57,1.14-.85Zm5.7,2v-2.85h-2.86v2.85Zm5.69,0v-2.85h-2.84v2.85Zm5.7,0v-2.85h-2.84v2.85Z"/><polygon class="cls-70" points="2389.89 1438.88 2635.18 859.98 2485.61 859.98 2240.04 1438.88 2389.89 1438.88"/><path class="cls-70" d="M2695.57,860l-245.29,578.9h73.8L2724.35,966V862.82a2.92,2.92,0,0,0-2.84-2.84Z"/><path class="cls-71" d="M2496.11,572.25h389.94c28.48,0,52.29,23.84,52.29,52.89v915.91c0,28.47-23.81,52.3-52.29,52.3H2496.11c-29.08,0-52.89-23.83-52.89-52.3V625.14a53.08,53.08,0,0,1,52.89-52.89Z"/><path class="cls-69" d="M2660.57,1020.91a47.78,47.78,0,0,1-7,95.3c-26.14-1.74-45.92-24.4-44.17-51.13,1.74-26.15,25-45.91,51.15-44.17Zm-45.33-25.58a32.6,32.6,0,0,1-34.87,30.23c-1.75,0-3.48-.59-5.82-.59a122.12,122.12,0,0,0-6.4,15.12,25.91,25.91,0,0,1,7.57,6.39c12.21,13.37,10.46,34.29-3.47,45.92-1.18,1.14-2.92,2.31-4.1,3.48A68.65,68.65,0,0,0,2574,1111c3.48-.57,6.4-1.15,9.87-.57a32.57,32.57,0,0,1,30.23,34.87c0,2.32-.58,4.06-.58,5.81a118.37,118.37,0,0,0,15.11,6.39,26.17,26.17,0,0,1,6.4-7.55c13.36-11.63,34.27-10.47,45.91,3.48a32.31,32.31,0,0,1,3.48,4.65,115.57,115.57,0,0,0,15.11-6.39,53.29,53.29,0,0,1-.58-9.88,32.58,32.58,0,0,1,34.87-30.22,17.47,17.47,0,0,1,5.81,1.16c2.32-5.23,4.64-9.88,6.39-15.11a40.75,40.75,0,0,1-7.55-6.39c-11.64-14-10.46-34.87,3.48-46.5a32.13,32.13,0,0,1,4.65-3.48,118.26,118.26,0,0,0-6.38-15.12,27.41,27.41,0,0,1-9.89.59,32.61,32.61,0,0,1-30.23-34.87,20.57,20.57,0,0,1,1.18-5.81c-5.25-2.33-9.89-4.66-15.12-6.39a28.65,28.65,0,0,1-7,7.56c-13.36,12.19-34.27,10.45-45.91-3.5-1.15-1.16-2.32-2.91-3.49-4.06a66.87,66.87,0,0,0-15.1,5.81c.58,3.49,1.16,6.39.58,9.87Z"/><path class="cls-69" d="M2773.89,936.05a30.09,30.09,0,0,1,16.26,40.11c-6.39,15.69-24.41,23.24-40.67,16.85a31.4,31.4,0,0,1-16.28-40.68c7-15.69,25-23.25,40.69-16.28Zm-22.66-25c-4.07,10.47-16.86,15.7-27.32,11l-3.48-1.73a99.33,99.33,0,0,0-7,8.13,15.39,15.39,0,0,1,2.92,5.23,21.15,21.15,0,0,1-11.63,27.89c-1.16,0-2.34.59-3.48.59a65.57,65.57,0,0,0,1.14,11,11.28,11.28,0,0,1,5.83,1.75c11,4.06,15.69,16.85,11.61,27.31-.57,1.16-1.15,2.33-1.74,3.49a89.7,89.7,0,0,0,7.57,7,49.77,49.77,0,0,1,5.81-3.48c10.45-4.08,23.24,1.16,27.31,11.62a8.32,8.32,0,0,1,1.15,3.48c3.49.58,7,0,10.47-.58.57-1.74,1.17-4.06,1.74-5.81,4.65-11,16.87-15.69,27.9-11.62a12.11,12.11,0,0,1,2.9,1.75c2.9-2.33,5.23-5.24,7.55-7.56a12.17,12.17,0,0,1-3.47-5.81,20.51,20.51,0,0,1,11.61-27.32,8.37,8.37,0,0,1,3.5-1.16,58.07,58.07,0,0,0-.6-10.47c-2.32-.57-4.05-1.15-6.37-1.73a21.35,21.35,0,0,1-11-27.9,12.71,12.71,0,0,1,1.72-2.9,50.21,50.21,0,0,0-8.12-7.56c-1.75,1.73-3.5,2.33-5.24,3.48a22.12,22.12,0,0,1-27.88-11.61c-.6-1.17-.6-2.33-1.18-3.5a62.28,62.28,0,0,0-10.46.59,13.35,13.35,0,0,1-1.73,6.38Z"/><path class="cls-64" d="M2525.16,1315H2856.4c4.08,0,7-3.49,7-7.55h0a6.72,6.72,0,0,0-7-7H2525.16a6.72,6.72,0,0,0-7,7h0c0,4.06,2.9,7.55,7,7.55Z"/><path class="cls-69" d="M2525.16,1315h184.5c4.07,0,7-3.49,7-7.55h0a6.72,6.72,0,0,0-7-7h-184.5a6.72,6.72,0,0,0-7,7h0c0,4.06,2.9,7.55,7,7.55Z"/><path class="cls-69" d="M2886.05,553.08H2496.11A71.42,71.42,0,0,0,2424,625.14v915.91a71.43,71.43,0,0,0,72.07,71.48h389.94c19.77,0,37.77-7.56,50.57-20.93,13.36-12.78,20.9-30.8,20.9-50.55V625.14a71.4,71.4,0,0,0-71.47-72.06ZM2794.8,592h0a15.39,15.39,0,0,1-15.11,15.12H2601.88c-8.15,0-14.55-7-14.55-15.12h-91.22A31.83,31.83,0,0,0,2463,625.14v915.91a33.54,33.54,0,0,0,9.29,23.24c6.4,5.8,14.54,9.88,23.84,9.88h389.94a33.77,33.77,0,0,0,33.13-33.12V625.14c0-9.3-4.07-17.44-9.89-23.83a33.49,33.49,0,0,0-23.24-9.3H2794.8Z"/><path class="cls-61" d="M2878.22,586H2787a15.38,15.38,0,0,1-15.11,15.11H2594a13.81,13.81,0,0,1-4.19-.65,14.34,14.34,0,0,0,12,6.68h177.81A15.39,15.39,0,0,0,2794.8,592h91.25a34.44,34.44,0,0,1,16.09,4c-.23-.25-.45-.52-.68-.77A33.44,33.44,0,0,0,2878.22,586Z"/><path class="cls-61" d="M2936.62,574a72,72,0,0,0-11-9c1.08,1,2.13,1.93,3.15,2.94a71.57,71.57,0,0,1,20.9,51.13V1535c0,19.76-7.54,37.78-20.9,50.56-12.8,13.37-30.81,20.92-50.57,20.92H2488.27a72.05,72.05,0,0,1-40.09-11.89,71.7,71.7,0,0,0,47.93,17.92h389.94c19.77,0,37.77-7.56,50.57-20.93,13.36-12.78,20.9-30.8,20.9-50.55V625.14A71.58,71.58,0,0,0,2936.62,574Z"/><path class="cls-61" d="M2471.47,1563.44a33.74,33.74,0,0,1-8.49-22.39V625.14A31.83,31.83,0,0,1,2496.11,592h91.22v-6h-99.06a31.83,31.83,0,0,0-33.12,33.12V1535a33.57,33.57,0,0,0,9.29,23.25A41.6,41.6,0,0,0,2471.47,1563.44Z"/><path class="cls-2" d="M2628.6,1262.09h-2.89v10.46a8.43,8.43,0,0,1-1.18,4.07,8.29,8.29,0,0,1-3.47,1.16c-1.75,0-2.93-.58-3.5-1.75a4.8,4.8,0,0,1-1.15-3.48v-10.46h-2.92v10.46a7.34,7.34,0,0,0,.58,3.48,3.06,3.06,0,0,0,1.17,2.34c.58.57,1.72,1.16,2.32,1.73,1.15,0,2.33.59,3.5.59a26.15,26.15,0,0,0,2.9-.59,8,8,0,0,0,2.32-1.73c1.17-.59,1.17-1.17,1.73-2.34a7.23,7.23,0,0,0,.59-3.48Zm18,6.4v-2.91c-.58-.59-1.18-1.17-1.73-1.74s-1.17-.59-2.34-1.17c-.58,0-1.75-.58-2.33-.58h-7.54v18h3.47v-5.81h6.4a4.45,4.45,0,0,1,2.34-1.16,3.11,3.11,0,0,0,1.15-2.33,3.49,3.49,0,0,0,.58-2.31Zm-2.9,0a3,3,0,0,1-1.17,2.31c-.58.58-1.75.58-2.91.58h-3.49V1265h3.49a4.46,4.46,0,0,1,2.91,1.17,3,3,0,0,1,1.17,2.33Zm22.65,2.89c0-1.16-.57-2.33-.57-3.48a5.86,5.86,0,0,0-2.32-2.91,3.24,3.24,0,0,0-2.91-1.74,8.5,8.5,0,0,0-4.08-1.16h-6.4v18h6.4a8.85,8.85,0,0,0,4.08-.57,13.22,13.22,0,0,0,2.91-1.75,10.32,10.32,0,0,0,2.32-2.9c0-1.17.57-2.33.57-3.5Zm-3.49,0a3.55,3.55,0,0,1-.57,2.33c0,.58-.58,1.17-1.18,1.75l-1.73,1.74H2653V1265h3.48c1.17,0,1.74.59,2.91.59.58.58,1.17.58,1.73,1.16a3,3,0,0,1,1.18,2.31c.57.59.57,1.17.57,2.33Zm15.11-9.29h-2.89l-7.57,18h2.91l1.75-4.07h8.72l1.73,4.07h3.49Zm1.75,11h-6.39l3.49-7Zm14.54-8.14h5.79v-2.9h-14.51v2.9h5.8v15.11h2.92Zm9.29-2.9v18h2.9v-18Zm20.34,12.79-9.3-12.79h-2.9v18h2.9v-12.77l9.87,12.77h2.92v-18h-3.49Zm23.83,2.9v-7.56h-7.55v2.91h4.64v2.9a3,3,0,0,1-2.32,1.17c-.59.58-1.17.58-2.32.58a3.54,3.54,0,0,1-2.34-.58c-.58-.58-1.15-.58-1.73-1.17a3,3,0,0,1-1.17-2.32,3.5,3.5,0,0,1-.58-2.33c0-1.16,0-1.74.58-2.33a3,3,0,0,1,1.17-2.31c.58-.58,1.15-1.16,1.73-1.16.59-.59,1.17-.59,2.34-.59h1.15a2.13,2.13,0,0,1,1.75.59,1.76,1.76,0,0,1,1.15.58l.59.58,2.33-2.33c-.59-.57-1.17-.57-1.74-1.16a2.07,2.07,0,0,0-1.18-.58c-.57,0-1.15-.58-1.73-.58h-2.32a7.36,7.36,0,0,0-3.49.58,16.6,16.6,0,0,0-5.23,5.23c0,1.15-.6,2.32-.6,3.48s.6,2.33.6,3.5a5.78,5.78,0,0,0,2.32,2.9,5.72,5.72,0,0,0,2.91,2.32c1.15,0,2.32.59,3.49.59a3.45,3.45,0,0,0,2.32-.59,2.12,2.12,0,0,0,1.73-.57,2.5,2.5,0,0,0,1.75-.59c.58-.57,1.17-.57,1.75-1.16Zm7,2.32v-3.48h-3.48v3.48Zm7,0v-3.48h-3.47v3.48Zm7,0v-3.48h-3.48v3.48Z"/><path class="cls-70" d="M2522.84,704.17,2473.43,821l-4.06,8.72v454.47l4.06-9.29,49.41-116.82,234.77-544.54H2601.88c-9.3,0-17.44-6.39-20.34-15.12h-10.47Z"/><path class="cls-70" d="M2828.52,598.4l-305.68,721.81-53.47,126.68v94.16c0,7,2.33,13.94,7.55,18.58a26.38,26.38,0,0,0,19.19,8.14h27.3l35.45-84.84,353.93-834V625.14a26.38,26.38,0,0,0-8.15-19.18,26.86,26.86,0,0,0-18.59-7.56Z"/></g><g id="people"><polygon class="cls-72" points="1824.01 1586.64 1824.5 1615.81 1799.15 1617.24 1798.2 1587.6 1824.01 1586.64"/><path class="cls-64" d="M1742.75,1622.5l.48-40.64c17.2-1,36.81,2.39,60.73,5.74-4.32,8.6-3.85,21,.94,29.64-24.86,2.39-42.54,7.17-62.15,5.26Z"/><path class="cls-69" d="M1743.23,1581.86l-.48,40.64c-10.52-.47-23.43-3.82-24.39-20.08,1-17.21,13.87-20.08,24.87-20.56Z"/><path class="cls-2" d="M1782.42,1593.34a2.61,2.61,0,0,0-1.89-2.87,1.83,1.83,0,0,0-2.4,1.43,32,32,0,0,0-1.43,9.08c0,2.88,0,6.22,1,9.09,0,1.44.95,1.91,2.39,1.91a3.24,3.24,0,0,0,1.91-2.87c-1-2.39-1-5.25-1-8.13a21.71,21.71,0,0,1,1.44-7.64Z"/><path class="cls-2" d="M1770.48,1592.86c.47-1.44-.47-2.87-1.44-2.87a2,2,0,0,0-2.86,1.43,29.38,29.38,0,0,0,0,18.17c0,1.44,1.44,1.92,2.39,1.92a2.14,2.14,0,0,0,1.44-2.87c-.49-2.87-1-5.26-.49-8.13h0c0-2.4,0-5.26,1-7.65Z"/><path class="cls-73" d="M1804,1371l49.24,7.64c-16.28,37.78-9.09,48.3,1.89,52.12l8.14,64.07c-70.76-40.64-76.49-46.38-59.27-123.83Z"/><polygon class="cls-72" points="2093.66 1586.64 2093.19 1615.81 2118.53 1617.24 2119.49 1587.6 2093.66 1586.64"/><path class="cls-62" d="M1835,1247.67c-9.08,14.34-20.56,61.19-41.59,120.95l10.53,1.92,49.24,9.09,7.15,1.43,5.75-21,1,42.07h187.42l1.42-42.07,5.73,21,7.2-1.43,48.75-9.09,10.52-1.92-48.3-120.95c-65-36.82-181.18-35.86-244.77,0Z"/><path class="cls-73" d="M1926.81,1243.36c5.75,13.86,18.66,22.47,33,22,14.33,0,26.76-9.09,32.5-22.95l-1.42-25.34a14.61,14.61,0,0,1-1.93,3.82,47,47,0,0,1-6.7,7.18c-1.89,2.38-3.82,3.35-6.68,4.3a34.15,34.15,0,0,1-10,1.91c-3.34.47-6.21,1-9.08.47-2.86,0-6.21-1.43-9.08-2.87a68.13,68.13,0,0,1-6.21-4.29,52.64,52.64,0,0,1-5.74-4.78c-1.91-2.39-3.84-5.27-5.73-7.66a6.86,6.86,0,0,0-1.44-1.9Z"/><path class="cls-62" d="M1981.8,1088.46c-34.43-33-90.38,12.43-78.89,49.25,1.42,3.81-3.82,14.34,6.22,30.11a29.41,29.41,0,0,1,4.29,7.65c1,3.36,1,6.22,1.43,8.13,1,2.4,1.93,4.31,2.88,6.22a13.4,13.4,0,0,1,1.43,6.21,31.46,31.46,0,0,1,.48,6.7c0,2.38,1,4.3,1.91,6.68,1.44,2.4,3.35,4.79,5.26,7.66,1.91,2.39,4.32,5.26,6.21,7.64a49.61,49.61,0,0,0,5.75,4.79c1.89,1.44,3.82,3.34,6.7,4.78a31.76,31.76,0,0,0,9.54,2.87c2.87.48,5.75,0,9.57,0a61.55,61.55,0,0,0,10-1.91,19.9,19.9,0,0,0,7.65-4.3c2.4-2.4,5.26-5.27,7.19-7.66a21.22,21.22,0,0,0,3.82-7.17c1.44-2.39,2.88-6.21,4.77-9.08,7.19-12.43,0-18.18,8.14-30.6,5.73-8.61,2.87-15.77,6.21-22.48s0-5.73,1.92-12.43c9.09-30.59-18.65-51.63-32.51-53.06Z"/><path class="cls-73" d="M1917.25,1143c5.74-2.87,57.36,2.39,62.15-15.78,8.12,17.7,15.78,16.74,21.52,19.13,1.43.47,1.91,1.91,2.38,6.69v17.22c0,9.08-10.52,39.68-23.42,28.2-6.21-5.26-10-10-18.65-10.51a18.14,18.14,0,0,0-13.86,4.78c-4.78,3.34-8.12,7.17-12.42,8.12a20.87,20.87,0,0,1-5.75-1,15.44,15.44,0,0,1-2.39-2.87c-1-1-1.91-2.87-3.82-5.26-2.39-3.35-8.61-21.51-9.08-25.82a90,90,0,0,1-.49-12c0-4.3,0-9.07,3.83-11Z"/><path class="cls-73" d="M2115.66,1371l-48.77,9.08c16.27,37.77,8.61,46.86-2.39,50.68l-8.13,64.07c70.77-40.64,77-46.38,59.29-123.83Z"/><path class="cls-74" d="M1858.91,1394.92H2058.3a8.57,8.57,0,0,1,8.59,8.61v118.08c12.43-1.9,12,5.75-.95,23.92a8.54,8.54,0,0,1-7.64,4.77H1858.91a8.36,8.36,0,0,1-7.15-4.77c-12.91-18.17-13.4-25.82-1-23.92V1403.53a8.5,8.5,0,0,1,8.12-8.61Z"/><polygon class="cls-69" points="1958.83 1460.42 1962.19 1463.76 1967.46 1463.76 1967.46 1469.02 1970.79 1472.38 1967.46 1476.2 1967.46 1480.98 1962.19 1480.98 1958.83 1484.32 1955.01 1480.98 1950.24 1480.98 1950.24 1476.2 1946.89 1472.38 1950.24 1469.02 1950.24 1463.76 1955.01 1463.76 1958.83 1460.42"/><path class="cls-75" d="M2178.77,1549.83c-40.66,21-157.3,48.76-361,68.36,0,0-3.35-10.51-9.58-31.07,143.44-61.2,258.66-88.92,319.86-105.18,22-8.61,47.8-1.92,60.25,15.3,12.91,17.2,8.59,39.69-9.57,52.59Z"/><path class="cls-64" d="M2174.94,1622.5l-.49-40.64c-17.2-1-36.34,2.39-60.71,5.74,4.32,8.6,4.32,21-.47,29.64,24.39,2.39,42.55,7.17,61.67,5.26Z"/><path class="cls-69" d="M2174.45,1581.86l.49,40.64c10.53-.47,23.43-3.82,24.38-20.08-.48-17.21-13.85-20.08-24.87-20.56Z"/><path class="cls-2" d="M2135.73,1593.34a2,2,0,0,1,1.44-2.87c.94-.48,2.39.47,2.88,1.43a66.39,66.39,0,0,1,.94,9.08,58.86,58.86,0,0,1-.47,9.09,2.61,2.61,0,0,1-2.86,1.91,2.31,2.31,0,0,1-1.44-2.87,43.54,43.54,0,0,0,.48-8.13,40.66,40.66,0,0,0-1-7.64Z"/><path class="cls-2" d="M2147.2,1592.86c0-1.44.49-2.87,1.93-2.87a1.61,1.61,0,0,1,2.39,1.43,30.52,30.52,0,0,1,1.43,9.09,59.54,59.54,0,0,1-1,9.08,2.6,2.6,0,0,1-2.86,1.92c-1-.48-1.93-1.92-1.44-2.87a46.93,46.93,0,0,0,.95-8.13h0a21.32,21.32,0,0,0-1.44-7.65Z"/><path class="cls-76" d="M1739.88,1549.83c40.65,21,157.77,48.76,360.95,68.36,0,0,3.35-10.51,9.58-31.07-143.44-61.2-258.65-88.92-319.86-105.18-22-8.61-47.32-1.92-60.23,15.3s-8.61,39.69,9.56,52.59Z"/><rect class="cls-77" x="1937.68" y="1452.66" width="40.47" height="43.71" rx="20.23"/><path class="cls-78" d="M1966.64,1496.82h-17.45a12,12,0,0,1-12-12v-20.69a12,12,0,0,1,12-12h17.45a12,12,0,0,1,12,12v20.69A12,12,0,0,1,1966.64,1496.82Zm-17.45-43.71a11.06,11.06,0,0,0-11.06,11.06v20.69a11.06,11.06,0,0,0,11.06,11.06h17.45a11.07,11.07,0,0,0,11.07-11.06v-20.69a11.07,11.07,0,0,0-11.07-11.06Z"/><path class="cls-2" d="M1947.64,1481.8a6.64,6.64,0,0,0-1.36,2,5.94,5.94,0,0,0-.51,2.42,6.22,6.22,0,0,0,1.88,4.46,6.93,6.93,0,0,0,2,1.32,6,6,0,0,0,2.42.49h11.07a5.92,5.92,0,0,0,2.42-.49,6.79,6.79,0,0,0,2-1.32,6.21,6.21,0,0,0,1.37-2,6.34,6.34,0,0,0,0-4.89,6.59,6.59,0,0,0-3.35-3.35,6.11,6.11,0,0,0-2.42-.51H1952a6.15,6.15,0,0,0-2.43.51A6.63,6.63,0,0,0,1947.64,1481.8Zm15.48.34a3.68,3.68,0,0,1,1.57.32,4.15,4.15,0,0,1,2.18,2.18,4,4,0,0,1,0,3.13,4.15,4.15,0,0,1-2.18,2.18,4,4,0,0,1-1.57.32h-11.07a4,4,0,0,1-1.57-.32,4.15,4.15,0,0,1-2.18-2.18,4,4,0,0,1,0-3.13,4.15,4.15,0,0,1,2.18-2.18,3.68,3.68,0,0,1,1.57-.32h11.07Z"/><path class="cls-2" d="M1945.4,1469.19a6.15,6.15,0,0,0-1.19,1.79,5.43,5.43,0,0,0-.45,2.21,5.68,5.68,0,0,0,3.48,5.33,5.86,5.86,0,0,0,6.37-1.19,6,6,0,0,0,1.23-1.79,5.81,5.81,0,0,0,.45-2.26,5.6,5.6,0,0,0-.45-2.21,5.94,5.94,0,0,0-1.2-1.78,5.69,5.69,0,0,0-1.82-1.25,5.89,5.89,0,0,0-4.55,0A5.73,5.73,0,0,0,1945.4,1469.19Zm5.55.6a3.8,3.8,0,0,1,2,2,3.56,3.56,0,0,1,0,2.86,3.85,3.85,0,0,1-2,2,3.72,3.72,0,0,1-2.89,0,3.87,3.87,0,0,1-2-2,3.58,3.58,0,0,1,0-2.87,3.8,3.8,0,0,1,2-2,3.72,3.72,0,0,1,2.89,0Z"/><circle class="cls-2" cx="1948.17" cy="1472.26" r="1.67"/><path class="cls-2" d="M1958.49,1477.77v-9a.82.82,0,0,0-.81-.82h-.18a.82.82,0,0,0-.81.82v9a.82.82,0,0,0,.81.82h.18A.82.82,0,0,0,1958.49,1477.77Z"/><path class="cls-2" d="M1961.56,1469.19a6.15,6.15,0,0,0-1.19,1.79,5.75,5.75,0,0,0,0,4.46,5.66,5.66,0,0,0,1.23,1.79,5.86,5.86,0,0,0,6.37,1.19,5.69,5.69,0,0,0,3.52-5.29,5.39,5.39,0,0,0-.46-2.2,5.83,5.83,0,0,0-1.19-1.79,5.66,5.66,0,0,0-1.84-1.25,5.86,5.86,0,0,0-4.54,0A5.79,5.79,0,0,0,1961.56,1469.19Zm5.56.6a3.78,3.78,0,0,1,2,2,3.58,3.58,0,0,1,0,2.87,3.85,3.85,0,0,1-2,2,3.74,3.74,0,0,1-2.9,0,3.83,3.83,0,0,1-2-2,3.58,3.58,0,0,1,0-2.87,3.87,3.87,0,0,1,2-2,3.69,3.69,0,0,1,2.88,0Z"/><circle class="cls-2" cx="1967" cy="1472.26" r="1.67"/><path class="cls-2" d="M1963.22,1460.41l-.19-.43a6.24,6.24,0,0,0-1.4-1.83,6.41,6.41,0,0,0-1.93-1.19,6.07,6.07,0,0,0-1.79-.42h-.69a6.08,6.08,0,0,0-1.78.42,6.46,6.46,0,0,0-1.94,1.19,6.18,6.18,0,0,0-1.38,1.83c-.07.14-.13.29-.19.43a.53.53,0,0,1-.68.3.57.57,0,0,1-.18-.12l-3.41-3.5a.78.78,0,0,0-1.1,0h0l-.44.44a.78.78,0,0,0,0,1.1l5,5a.53.53,0,0,1-.37.9h-6.2a.78.78,0,0,0-.78.78v.63a.78.78,0,0,0,.78.78h26.19a.78.78,0,0,0,.78-.78h0v-.62a.78.78,0,0,0-.78-.78h-6.19a.52.52,0,0,1-.37-.89l5-5a.8.8,0,0,0,0-1.11l-.45-.42h0a.78.78,0,0,0-1.1,0h0l-3.44,3.51a.52.52,0,0,1-.74,0,.47.47,0,0,1-.12-.19Zm-2.09.79a3.93,3.93,0,0,1,.33,1.58v.15a.61.61,0,0,1-.15.36l-1,1.08a.52.52,0,0,1-.39.17h-4.65a.52.52,0,0,1-.38-.17l-1-1.08a.51.51,0,0,1-.15-.36v-.15a4.14,4.14,0,0,1,3.87-4.08,4,4,0,0,1,1.37.33A4.11,4.11,0,0,1,1961.13,1461.2Z"/></g><g id="Layer_6" data-name="Layer 6"><rect class="cls-79" x="1922.07" y="1153.5" width="26.25" height="19.2" rx="5.73"/><rect class="cls-79" x="1967.4" y="1153.5" width="26.25" height="19.2" rx="5.73"/><line class="cls-79" x1="1950.6" y1="1161.9" x2="1967.4" y2="1161.9"/></g></g></svg>